<svg width="190" height="36" viewBox="0 0 190 36" fill="none" xmlns="http://www.w3.org/2000/svg">
<path d="M4.76 2.088C5.864 1.872 6.932 1.704 7.964 1.584C8.996 1.44 10.172 1.368 11.492 1.368C13.436 1.368 15.032 1.668 16.28 2.268C17.552 2.844 18.5 3.612 19.124 4.572C19.748 5.508 20.06 6.516 20.06 7.596C20.06 9.228 19.604 10.56 18.692 11.592C17.78 12.6 16.436 13.368 14.66 13.896C16.004 14.4 17.108 15.12 17.972 16.056C18.836 16.992 19.268 18.204 19.268 19.692C19.268 21.42 18.752 22.86 17.72 24.012C16.688 25.164 15.32 26.028 13.616 26.604C11.936 27.156 10.112 27.432 8.144 27.432C6.44 27.432 4.952 27.3 3.68 27.036C2.408 26.796 1.352 26.544 0.512 26.28L4.76 2.088ZM11.348 4.068C10.604 4.068 9.944 4.092 9.368 4.14C8.792 4.188 8.264 4.26 7.784 4.356L6.308 12.672H9.836C12.164 12.672 13.892 12.216 15.02 11.304C16.148 10.368 16.712 9.288 16.712 8.064C16.712 6.936 16.256 5.988 15.344 5.22C14.456 4.452 13.124 4.068 11.348 4.068ZM5.84 15.336L4.328 24.084C5.6 24.42 6.956 24.588 8.396 24.588C10.748 24.588 12.56 24.144 13.832 23.256C15.128 22.344 15.776 21.192 15.776 19.8C15.776 18.984 15.548 18.24 15.092 17.568C14.636 16.896 13.904 16.356 12.896 15.948C11.912 15.54 10.604 15.336 8.972 15.336H5.84ZM30.6148 27.432C29.0308 27.432 27.6268 27.096 26.4028 26.424C25.2028 25.728 24.2548 24.744 23.5588 23.472C22.8868 22.176 22.5508 20.652 22.5508 18.9C22.5508 16.908 22.9588 15.072 23.7748 13.392C24.6148 11.712 25.7908 10.368 27.3028 9.36C28.8388 8.352 30.6268 7.848 32.6668 7.848C34.0588 7.848 35.2348 8.112 36.1948 8.64C37.1788 9.168 37.9348 9.852 38.4628 10.692C38.9908 11.532 39.2548 12.432 39.2548 13.392C39.2548 14.712 38.9428 15.804 38.3188 16.668C37.6948 17.532 36.8908 18.204 35.9068 18.684C34.9228 19.14 33.8548 19.464 32.7028 19.656C31.5748 19.848 30.4948 19.944 29.4628 19.944C28.8148 19.944 28.1668 19.92 27.5188 19.872C26.8948 19.8 26.3428 19.728 25.8628 19.656C26.0548 21.24 26.6188 22.452 27.5548 23.292C28.4908 24.132 29.6908 24.552 31.1548 24.552C32.3548 24.552 33.4228 24.396 34.3588 24.084C35.2948 23.772 36.0868 23.46 36.7348 23.148L37.0228 26.028C36.3028 26.364 35.3908 26.688 34.2868 27C33.1828 27.288 31.9588 27.432 30.6148 27.432ZM32.4148 10.584C31.2868 10.584 30.2668 10.872 29.3548 11.448C28.4428 12 27.6868 12.768 27.0868 13.752C26.5108 14.712 26.1268 15.816 25.9348 17.064C26.4868 17.16 27.0388 17.244 27.5908 17.316C28.1668 17.364 28.7908 17.388 29.4628 17.388C31.4788 17.388 33.0748 17.112 34.2508 16.56C35.4268 15.984 36.0148 15.012 36.0148 13.644C36.0148 12.804 35.6788 12.084 35.0068 11.484C34.3588 10.884 33.4948 10.584 32.4148 10.584ZM45.1076 20.52C45.0596 20.832 45.0236 21.12 44.9996 21.384C44.9756 21.624 44.9636 21.84 44.9636 22.032C44.9636 22.848 45.2036 23.484 45.6836 23.94C46.1876 24.396 46.8476 24.624 47.6636 24.624C48.0716 24.624 48.4796 24.576 48.8876 24.48C49.2956 24.384 49.6676 24.252 50.0036 24.084L50.3276 26.712C49.8956 26.928 49.3916 27.096 48.8156 27.216C48.2396 27.36 47.6156 27.432 46.9436 27.432C45.5036 27.432 44.2676 27.024 43.2356 26.208C42.2276 25.368 41.7236 24.108 41.7236 22.428C41.7236 21.804 41.7716 21.192 41.8676 20.592L45.3956 0.36H48.6356L45.1076 20.52ZM51.9062 19.62C51.9062 17.292 52.4102 15.252 53.4182 13.5C54.4502 11.724 55.8662 10.344 57.6662 9.36C59.4662 8.352 61.5182 7.848 63.8222 7.848C65.2382 7.848 66.4742 7.992 67.5302 8.28C68.6102 8.568 69.4982 8.856 70.1942 9.144L67.9262 21.924C67.9022 22.044 67.8782 22.188 67.8542 22.356C67.8542 22.5 67.8542 22.656 67.8542 22.824C67.8542 23.496 68.0462 23.976 68.4302 24.264C68.8142 24.528 69.3182 24.66 69.9422 24.66L68.8262 27.18C67.5302 27.18 66.5342 26.868 65.8382 26.244C65.1662 25.596 64.8302 24.6 64.8302 23.256C64.1582 24.408 63.3062 25.392 62.2742 26.208C61.2662 27.024 60.0782 27.432 58.7102 27.432C57.5342 27.432 56.4302 27.12 55.3982 26.496C54.3662 25.848 53.5262 24.948 52.8782 23.796C52.2302 22.62 51.9062 21.228 51.9062 19.62ZM66.6302 11.052C66.1742 10.908 65.6942 10.8 65.1902 10.728C64.7102 10.632 64.1222 10.584 63.4262 10.584C61.7702 10.584 60.3302 10.956 59.1062 11.7C57.8822 12.444 56.9222 13.476 56.2262 14.796C55.5542 16.092 55.2182 17.568 55.2182 19.224C55.2182 20.376 55.4222 21.348 55.8302 22.14C56.2622 22.932 56.8142 23.532 57.4862 23.94C58.1582 24.348 58.8542 24.552 59.5742 24.552C60.5582 24.552 61.4582 24.216 62.2742 23.544C63.0902 22.872 63.7862 21.936 64.3622 20.736C64.9622 19.536 65.3942 18.168 65.6582 16.632L66.6302 11.052ZM78.7993 5.076C78.1273 5.076 77.6113 4.884 77.2513 4.5C76.9153 4.092 76.7473 3.624 76.7473 3.096C76.7473 2.328 76.9873 1.716 77.4673 1.26C77.9473 0.779999 78.5473 0.539999 79.2673 0.539999C79.9393 0.539999 80.4433 0.743999 80.7793 1.152C81.1393 1.536 81.3193 1.992 81.3193 2.52C81.3193 3.264 81.0793 3.876 80.5993 4.356C80.1193 4.836 79.5193 5.076 78.7993 5.076ZM76.4233 8.28H79.6633L75.9193 29.592C75.5353 31.704 74.8153 33.192 73.7593 34.056C72.7033 34.92 71.4313 35.352 69.9433 35.352C69.1513 35.352 68.4313 35.244 67.7833 35.028C67.1113 34.812 66.5233 34.512 66.0193 34.128L67.3153 31.464C67.6513 31.776 68.0473 32.028 68.5033 32.22C68.9593 32.436 69.4513 32.544 69.9793 32.544C70.6273 32.544 71.1913 32.316 71.6713 31.86C72.1513 31.404 72.4753 30.672 72.6433 29.664L76.4233 8.28ZM82.3515 19.62C82.3515 17.292 82.8555 15.252 83.8635 13.5C84.8955 11.724 86.3115 10.344 88.1115 9.36C89.9115 8.352 91.9635 7.848 94.2675 7.848C95.6835 7.848 96.9195 7.992 97.9755 8.28C99.0555 8.568 99.9435 8.856 100.64 9.144L98.3715 21.924C98.3475 22.044 98.3235 22.188 98.2995 22.356C98.2995 22.5 98.2995 22.656 98.2995 22.824C98.2995 23.496 98.4915 23.976 98.8755 24.264C99.2595 24.528 99.7635 24.66 100.388 24.66L99.2715 27.18C97.9755 27.18 96.9795 26.868 96.2835 26.244C95.6115 25.596 95.2755 24.6 95.2755 23.256C94.6035 24.408 93.7515 25.392 92.7195 26.208C91.7115 27.024 90.5235 27.432 89.1555 27.432C87.9795 27.432 86.8755 27.12 85.8435 26.496C84.8115 25.848 83.9715 24.948 83.3235 23.796C82.6755 22.62 82.3515 21.228 82.3515 19.62ZM97.0755 11.052C96.6195 10.908 96.1395 10.8 95.6355 10.728C95.1555 10.632 94.5675 10.584 93.8715 10.584C92.2155 10.584 90.7755 10.956 89.5515 11.7C88.3275 12.444 87.3675 13.476 86.6715 14.796C85.9995 16.092 85.6635 17.568 85.6635 19.224C85.6635 20.376 85.8675 21.348 86.2755 22.14C86.7075 22.932 87.2595 23.532 87.9315 23.94C88.6035 24.348 89.2995 24.552 90.0195 24.552C91.0035 24.552 91.9035 24.216 92.7195 23.544C93.5355 22.872 94.2315 21.936 94.8075 20.736C95.4075 19.536 95.8395 18.168 96.1035 16.632L97.0755 11.052ZM106.572 13.536C106.596 13.416 106.608 13.284 106.608 13.14C106.632 12.972 106.644 12.804 106.644 12.636C106.644 11.964 106.452 11.496 106.068 11.232C105.684 10.944 105.18 10.8 104.556 10.8L105.672 8.28C106.944 8.28 107.916 8.592 108.588 9.216C109.284 9.816 109.632 10.716 109.632 11.916V12.636C110.328 10.932 111.216 9.708 112.296 8.964C113.4 8.22 114.648 7.848 116.04 7.848C116.592 7.848 117.06 7.896 117.444 7.992C117.852 8.064 118.188 8.16 118.452 8.28L117.012 11.448C116.724 11.328 116.424 11.244 116.112 11.196C115.8 11.148 115.44 11.124 115.032 11.124C114.168 11.124 113.304 11.436 112.44 12.06C111.6 12.66 110.832 13.668 110.136 15.084C109.464 16.5 108.912 18.444 108.48 20.916L107.436 27H104.196L106.572 13.536ZM132.862 21.348C133.534 22.164 134.098 22.788 134.554 23.22C135.034 23.652 135.478 23.952 135.886 24.12C136.318 24.264 136.798 24.336 137.326 24.336L136.066 27.252C135.01 27.252 134.098 27.036 133.33 26.604C132.586 26.172 131.794 25.428 130.954 24.372L123.898 15.372L121.846 27H118.426L122.854 1.8H126.274L124.294 12.996L136.246 1.872L138.334 4.176L127.174 14.184L132.862 21.348ZM145.203 27.432C144.243 27.432 143.355 27.216 142.539 26.784C141.747 26.352 141.111 25.752 140.631 24.984C140.151 24.192 139.911 23.256 139.911 22.176C139.911 21.864 139.923 21.552 139.947 21.24C139.971 20.904 140.007 20.556 140.055 20.196L142.107 8.28H145.347L143.259 20.124C143.235 20.364 143.211 20.58 143.187 20.772C143.163 20.94 143.151 21.132 143.151 21.348C143.151 22.428 143.463 23.232 144.087 23.76C144.711 24.288 145.443 24.552 146.283 24.552C147.195 24.552 148.083 24.276 148.947 23.724C149.835 23.148 150.615 22.332 151.287 21.276C151.959 20.22 152.427 18.948 152.691 17.46L154.311 8.28H157.551L155.175 21.924C155.151 22.044 155.127 22.188 155.103 22.356C155.103 22.5 155.103 22.656 155.103 22.824C155.103 23.496 155.295 23.976 155.679 24.264C156.063 24.528 156.567 24.66 157.191 24.66L156.075 27.18C154.779 27.18 153.783 26.868 153.087 26.244C152.415 25.596 152.079 24.6 152.079 23.256V22.932C150.327 25.932 148.035 27.432 145.203 27.432ZM166.991 24.12C167.903 24.12 168.791 23.832 169.655 23.256C170.543 22.68 171.323 21.852 171.995 20.772C172.667 19.668 173.135 18.336 173.399 16.776L174.875 8.28H178.115L174.839 27.216C174.551 28.872 174.107 30.228 173.507 31.284C172.931 32.34 172.247 33.156 171.455 33.732C170.687 34.332 169.871 34.752 169.007 34.992C168.143 35.232 167.291 35.352 166.451 35.352C164.819 35.352 163.427 35.016 162.275 34.344C161.147 33.672 160.223 32.892 159.503 32.004L162.023 30.132C163.199 31.74 164.747 32.544 166.667 32.544C167.867 32.544 168.923 32.1 169.835 31.212C170.747 30.324 171.395 28.812 171.779 26.676L172.463 22.86C171.743 24.012 170.831 24.996 169.727 25.812C168.623 26.604 167.351 27 165.911 27C164.975 27 164.111 26.796 163.319 26.388C162.527 25.956 161.891 25.344 161.411 24.552C160.931 23.76 160.691 22.824 160.691 21.744C160.691 21.48 160.691 21.18 160.691 20.844C160.715 20.508 160.763 20.148 160.835 19.764L162.779 8.28H166.019L164.039 19.692C163.967 20.124 163.931 20.532 163.931 20.916C163.931 21.996 164.231 22.8 164.831 23.328C165.455 23.856 166.175 24.12 166.991 24.12ZM185.802 0.755999H189.402L187.818 9.72L185.622 19.548H182.958L184.218 9.72L185.802 0.755999ZM183.174 27.432C182.502 27.432 181.962 27.228 181.554 26.82C181.146 26.388 180.942 25.908 180.942 25.38C180.942 24.492 181.218 23.808 181.77 23.328C182.322 22.848 182.934 22.608 183.606 22.608C184.302 22.608 184.842 22.812 185.226 23.22C185.634 23.628 185.838 24.108 185.838 24.66C185.838 25.548 185.562 26.232 185.01 26.712C184.482 27.192 183.87 27.432 183.174 27.432Z" fill="#012030"/>
</svg>
