<svg width="285" height="190" viewBox="0 0 285 190" fill="none" xmlns="http://www.w3.org/2000/svg">
<path d="M76.728 66.1309L81.4637 140.38L79.121 140.53C79.0875 140.53 77.3472 133.469 77.3472 133.469L73.0632 66.3485L76.728 66.1309Z" fill="#E1558B"/>
<path d="M79.623 140.497L80.7442 145.233L80.9952 140.413L79.623 140.497Z" fill="#E77D3B"/>
<path d="M78.1671 132.682C78.0834 131.394 79.0707 130.272 80.3592 130.189C81.6477 130.105 82.7689 131.092 82.8526 132.381C82.9363 133.67 81.949 134.791 80.6604 134.874C79.3552 134.958 78.234 133.971 78.1671 132.682Z" fill="#F8D451"/>
<path d="M78.4851 65.6624L114.513 130.758L116.572 129.62C116.589 129.603 114.262 122.725 114.262 122.725L81.698 63.8886L78.4851 65.6624Z" fill="#E1558B"/>
<path d="M116.103 129.888L117.71 134.473L114.898 130.54L116.103 129.888Z" fill="#E77D3B"/>
<path d="M107.21 107.275L106.053 107.915L108.914 113.083L110.07 112.443L107.21 107.275Z" fill="#F8D451"/>
<path d="M74.9453 51.8029L72.3071 52.5589L74.9165 61.6639L77.5547 60.9078L74.9453 51.8029Z" fill="#E77D3B"/>
<path d="M82.0662 63.2861L81.4973 68.5406L84.0743 77.5101L78.2006 79.2002L75.6236 70.2308L72.3605 66.064C71.5907 63.3865 73.147 60.5919 75.8244 59.8222C78.5186 59.0524 81.3132 60.6087 82.0662 63.2861Z" fill="#F8D451"/>
<path d="M75.858 64.9093C75.6404 64.173 76.0755 63.42 76.7951 63.2025C77.5314 62.9849 78.2844 63.42 78.502 64.1396C78.7195 64.8759 78.2844 65.6289 77.5649 65.8464C76.8286 66.064 76.0755 65.6289 75.858 64.9093Z" fill="#E77D3B"/>
<g opacity="0.5">
<g opacity="0.5">
<path opacity="0.5" d="M236.822 45.1799H235.902V44.8285H236.488V44.2428H236.822V45.1799Z" fill="#7FE1D3"/>
</g>
<g opacity="0.5">
<path opacity="0.5" d="M234.312 45.1799H232.723V44.8452H234.312V45.1799ZM231.15 45.1799H229.56V44.8452H231.15V45.1799ZM227.987 45.1799H226.397V44.8452H227.987V45.1799ZM224.807 45.1799H223.218V44.8452H224.807V45.1799ZM221.645 45.1799H220.055V44.8452H221.645V45.1799ZM218.482 45.1799H216.892V44.8452H218.482V45.1799ZM215.319 45.1799H213.73V44.8452H215.319V45.1799ZM212.157 45.1799H210.567V44.8452H212.157V45.1799ZM208.994 45.1799H207.404V44.8452H208.994V45.1799Z" fill="#7FE1D3"/>
</g>
<g opacity="0.5">
<path opacity="0.5" d="M205.814 45.1799H204.894V44.2428H205.229V44.8285H205.814V45.1799Z" fill="#7FE1D3"/>
</g>
<g opacity="0.5">
<path opacity="0.5" d="M205.229 42.7869H204.894V41.3311H205.229V42.7869ZM205.229 39.8752H204.894V38.4193H205.229V39.8752ZM205.229 36.9467H204.894V35.4909H205.229V36.9467ZM205.229 34.035H204.894V32.5792H205.229V34.035ZM205.229 31.1233H204.894V29.6674H205.229V31.1233ZM205.229 28.1948H204.894V26.739H205.229V28.1948ZM205.229 25.2831H204.894V23.8273H205.229V25.2831ZM205.229 22.3714H204.894V20.9155H205.229V22.3714Z" fill="#7FE1D3"/>
</g>
<g opacity="0.5">
<path opacity="0.5" d="M205.229 19.4597H204.894V18.5226H205.814V18.8572H205.229V19.4597Z" fill="#7FE1D3"/>
</g>
<g opacity="0.5">
<path opacity="0.5" d="M234.312 18.8573H232.723V18.5226H234.312V18.8573ZM231.15 18.8573H229.56V18.5226H231.15V18.8573ZM227.987 18.8573H226.397V18.5226H227.987V18.8573ZM224.807 18.8573H223.218V18.5226H224.807V18.8573ZM221.645 18.8573H220.055V18.5226H221.645V18.8573ZM218.482 18.8573H216.892V18.5226H218.482V18.8573ZM215.319 18.8573H213.73V18.5226H215.319V18.8573ZM212.157 18.8573H210.567V18.5226H212.157V18.8573ZM208.994 18.8573H207.404V18.5226H208.994V18.8573Z" fill="#7FE1D3"/>
</g>
<g opacity="0.5">
<path opacity="0.5" d="M236.822 19.4597H236.488V18.8573H235.902V18.5226H236.822V19.4597Z" fill="#7FE1D3"/>
</g>
<g opacity="0.5">
<path opacity="0.5" d="M236.822 42.7869H236.488V41.3311H236.822V42.7869ZM236.822 39.8752H236.488V38.4193H236.822V39.8752ZM236.822 36.9467H236.488V35.4909H236.822V36.9467ZM236.822 34.035H236.488V32.5792H236.822V34.035ZM236.822 31.1233H236.488V29.6674H236.822V31.1233ZM236.822 28.1948H236.488V26.739H236.822V28.1948ZM236.822 25.2831H236.488V23.8273H236.822V25.2831ZM236.822 22.3714H236.488V20.9155H236.822V22.3714Z" fill="#7FE1D3"/>
</g>
</g>
<g opacity="0.5">
<path opacity="0.5" d="M241.391 58.0818C240.822 58.0818 240.236 58.0484 239.684 57.9982L239.718 57.6133C240.27 57.6635 240.839 57.697 241.391 57.697V58.0818ZM243.098 57.9982L243.064 57.6133C243.617 57.5631 244.169 57.4794 244.721 57.3623L244.805 57.7304C244.236 57.8476 243.667 57.9312 243.098 57.9982ZM237.977 57.7304C237.425 57.6133 236.856 57.4627 236.321 57.2953L236.438 56.9272C236.973 57.0945 237.509 57.2451 238.061 57.3456L237.977 57.7304ZM246.461 57.3121L246.344 56.9439C246.88 56.7766 247.399 56.5758 247.917 56.3582L248.068 56.7097C247.549 56.9272 246.997 57.128 246.461 57.3121ZM234.714 56.6929C234.195 56.4586 233.677 56.2076 233.175 55.9232L233.359 55.5885C233.844 55.8562 234.346 56.1072 234.865 56.3415L234.714 56.6929ZM249.607 55.9399L249.423 55.6052C249.909 55.3375 250.377 55.0362 250.846 54.7016L251.063 55.0195C250.595 55.3542 250.093 55.6554 249.607 55.9399ZM231.735 55.0028C231.267 54.6681 230.815 54.3167 230.38 53.9485L230.631 53.6641C231.049 54.0322 231.501 54.3836 231.953 54.7016L231.735 55.0028ZM252.402 53.9653L252.151 53.6808C252.569 53.3126 252.971 52.9278 253.356 52.5094L253.64 52.7772C253.255 53.1955 252.837 53.5971 252.402 53.9653ZM229.158 52.7437C228.774 52.3253 228.405 51.8902 228.054 51.4384L228.355 51.2041C228.69 51.656 229.058 52.0743 229.426 52.4927L229.158 52.7437ZM254.745 51.4552L254.444 51.2209C254.778 50.7691 255.096 50.3173 255.397 49.832L255.715 50.0328C255.414 50.5348 255.096 51.0033 254.745 51.4552ZM227.083 50.016C226.782 49.5307 226.514 49.0287 226.263 48.51L226.615 48.3426C226.849 48.8447 227.117 49.3467 227.418 49.8152L227.083 50.016ZM256.535 48.5434L256.184 48.3761C256.418 47.8741 256.636 47.3553 256.82 46.8198L257.171 46.9537C257.004 47.4892 256.77 48.0247 256.535 48.5434ZM225.611 46.9202C225.427 46.3847 225.259 45.8325 225.126 45.2803L225.494 45.1966C225.628 45.7321 225.778 46.2844 225.979 46.8031L225.611 46.9202ZM257.673 45.3138L257.305 45.2301C257.439 44.6946 257.539 44.1424 257.623 43.5902L258.008 43.6404C257.924 44.1926 257.807 44.7615 257.673 45.3138ZM224.808 43.5902C224.724 43.0212 224.69 42.4523 224.657 41.8833L225.042 41.8666C225.059 42.4188 225.109 42.9877 225.176 43.54L224.808 43.5902ZM258.142 41.9168L257.757 41.9C257.757 41.716 257.774 41.5151 257.774 41.3311C257.774 40.9629 257.757 40.5948 257.74 40.2266L258.125 40.1932C258.142 40.5613 258.159 40.9462 258.159 41.3311C258.159 41.5319 258.159 41.7159 258.142 41.9168ZM225.042 41.3311H224.657C224.657 40.7621 224.69 40.1764 224.741 39.6242L225.126 39.6577C225.059 40.2099 225.042 40.7788 225.042 41.3311ZM257.539 38.5532C257.439 38.001 257.322 37.4488 257.171 36.9133L257.539 36.8129C257.69 37.3651 257.824 37.9173 257.908 38.4863L257.539 38.5532ZM225.377 38.001L225.008 37.9173C225.126 37.3651 225.276 36.7962 225.443 36.2607L225.812 36.3778C225.628 36.9133 225.494 37.4488 225.377 38.001ZM256.636 35.3403C256.435 34.8215 256.201 34.3028 255.95 33.8175L256.284 33.6501C256.552 34.1522 256.786 34.6877 256.987 35.2064L256.636 35.3403ZM226.397 34.8048L226.046 34.6542C226.28 34.1354 226.531 33.6167 226.816 33.1147L227.15 33.2987C226.866 33.8007 226.615 34.3028 226.397 34.8048ZM255.096 32.3616C254.795 31.8931 254.46 31.4413 254.109 31.0062L254.41 30.7719C254.778 31.207 255.113 31.6755 255.431 32.1608L255.096 32.3616ZM228.037 31.8931L227.719 31.6755C228.054 31.207 228.405 30.7552 228.774 30.3201L229.058 30.5711C228.707 30.9894 228.355 31.4412 228.037 31.8931ZM252.988 29.7678C252.586 29.3662 252.168 28.9981 251.749 28.6467L251.984 28.3455C252.419 28.7136 252.854 29.0985 253.255 29.5001L252.988 29.7678ZM230.229 29.3662L229.962 29.0818C230.38 28.6969 230.815 28.312 231.267 27.9773L231.501 28.2785C231.083 28.6299 230.648 28.9813 230.229 29.3662ZM250.394 27.6426C249.925 27.3414 249.44 27.0569 248.955 26.7892L249.122 26.4545C249.624 26.7222 250.126 27.0067 250.595 27.3247L250.394 27.6426ZM232.907 27.3414L232.706 27.0235C233.191 26.7222 233.693 26.4545 234.212 26.2035L234.379 26.5549C233.877 26.7892 233.375 27.0569 232.907 27.3414ZM247.415 26.1031C246.897 25.9023 246.361 25.7182 245.826 25.5676L245.926 25.1994C246.478 25.35 247.014 25.5341 247.549 25.7517L247.415 26.1031ZM235.936 25.9023L235.802 25.5509C236.337 25.3668 236.89 25.1995 237.442 25.0656L237.525 25.4337C236.99 25.5509 236.454 25.7182 235.936 25.9023ZM244.186 25.1994C243.633 25.099 243.081 25.0321 242.529 24.9986L242.562 24.6138C243.131 24.6472 243.7 24.7142 244.269 24.8146L244.186 25.1994ZM239.182 25.1158L239.132 24.7309C239.701 24.6472 240.27 24.6138 240.839 24.5803L240.856 24.9652C240.287 24.9987 239.734 25.0321 239.182 25.1158Z" fill="#7FE1D3"/>
</g>
<path d="M48.9161 188.892L28.8018 157.382L69.432 131.427L48.9161 188.892Z" fill="#F8D451"/>
<path d="M47.1088 173.915L38.0222 159.674L56.3795 147.944L47.1088 173.915Z" fill="#EBF3FA"/>
<path d="M31.7998 156.266L31.6165 156.383L33.0847 158.682L33.2681 158.565L31.7998 156.266Z" fill="#060633"/>
<path d="M32.8564 155.577L32.6731 155.694L33.5377 157.048L33.721 156.931L32.8564 155.577Z" fill="#060633"/>
<path d="M33.7444 154.997L33.561 155.114L34.4258 156.467L34.6091 156.35L33.7444 154.997Z" fill="#060633"/>
<path d="M34.5996 154.456L34.4163 154.573L35.281 155.927L35.4643 155.81L34.5996 154.456Z" fill="#060633"/>
<path d="M35.3855 153.983L35.2021 154.1L36.0669 155.454L36.2503 155.337L35.3855 153.983Z" fill="#060633"/>
<path d="M36.2485 153.404L36.0652 153.522L36.9299 154.875L37.1133 154.758L36.2485 153.404Z" fill="#060633"/>
<path d="M37.1226 152.853L36.9392 152.97L38.4072 155.269L38.5906 155.152L37.1226 152.853Z" fill="#060633"/>
<path d="M38.2039 152.159L38.0205 152.276L38.8851 153.63L39.0684 153.512L38.2039 152.159Z" fill="#060633"/>
<path d="M39.0898 151.617L38.9065 151.734L39.7713 153.088L39.9546 152.971L39.0898 151.617Z" fill="#060633"/>
<path d="M39.9298 151.062L39.7466 151.179L40.6121 152.532L40.7954 152.415L39.9298 151.062Z" fill="#060633"/>
<path d="M40.6982 150.575L40.5149 150.692L41.3795 152.046L41.5628 151.929L40.6982 150.575Z" fill="#060633"/>
<path d="M41.5703 149.993L41.387 150.11L42.2517 151.464L42.435 151.347L41.5703 149.993Z" fill="#060633"/>
<path d="M42.7858 149.228L42.6025 149.345L44.0722 151.643L44.2555 151.526L42.7858 149.228Z" fill="#060633"/>
<path d="M43.8594 148.571L43.676 148.688L44.5408 150.042L44.7241 149.925L43.8594 148.571Z" fill="#060633"/>
<path d="M44.7405 147.987L44.5571 148.104L45.4217 149.458L45.6051 149.341L44.7405 147.987Z" fill="#060633"/>
<path d="M45.5811 147.461L45.3977 147.579L46.2623 148.932L46.4457 148.815L45.5811 147.461Z" fill="#060633"/>
<path d="M46.3816 146.965L46.1982 147.082L47.063 148.436L47.2463 148.319L46.3816 146.965Z" fill="#060633"/>
<path d="M47.2357 146.379L47.0525 146.496L47.9181 147.849L48.1013 147.732L47.2357 146.379Z" fill="#060633"/>
<path d="M48.104 145.831L47.9207 145.948L49.389 148.247L49.5723 148.13L48.104 145.831Z" fill="#060633"/>
<path d="M49.1623 145.159L48.979 145.276L49.8438 146.63L50.0271 146.513L49.1623 145.159Z" fill="#060633"/>
<path d="M50.0852 144.586L49.9019 144.703L50.7668 146.057L50.9501 145.939L50.0852 144.586Z" fill="#060633"/>
<path d="M50.9011 144.033L50.7178 144.15L51.5825 145.504L51.7659 145.387L50.9011 144.033Z" fill="#060633"/>
<path d="M51.6851 143.544L51.5017 143.661L52.3663 145.015L52.5497 144.897L51.6851 143.544Z" fill="#060633"/>
<path d="M52.5706 143.003L52.3872 143.12L53.252 144.474L53.4353 144.357L52.5706 143.003Z" fill="#060633"/>
<path d="M53.676 142.287L53.4927 142.404L54.961 144.703L55.1443 144.586L53.676 142.287Z" fill="#060633"/>
<path d="M54.7268 141.591L54.5435 141.708L55.4082 143.062L55.5915 142.945L54.7268 141.591Z" fill="#060633"/>
<path d="M55.6145 141.025L55.4312 141.142L56.2959 142.495L56.4792 142.378L55.6145 141.025Z" fill="#060633"/>
<path d="M56.4711 140.497L56.2878 140.614L57.1532 141.968L57.3365 141.851L56.4711 140.497Z" fill="#060633"/>
<path d="M57.2407 140.003L57.0574 140.12L57.922 141.474L58.1053 141.356L57.2407 140.003Z" fill="#060633"/>
<path d="M58.134 139.439L57.9507 139.556L58.8156 140.91L58.9989 140.793L58.134 139.439Z" fill="#060633"/>
<path d="M58.9937 138.881L58.8103 138.998L60.2783 141.297L60.4617 141.18L58.9937 138.881Z" fill="#060633"/>
<path d="M60.0681 138.215L59.8848 138.332L60.7495 139.686L60.9329 139.569L60.0681 138.215Z" fill="#060633"/>
<path d="M60.9436 137.623L60.7603 137.741L61.625 139.094L61.8084 138.977L60.9436 137.623Z" fill="#060633"/>
<path d="M61.8147 137.09L61.6313 137.207L62.4963 138.561L62.6796 138.444L61.8147 137.09Z" fill="#060633"/>
<path d="M62.5925 136.608L62.4092 136.725L63.2747 138.079L63.458 137.961L62.5925 136.608Z" fill="#060633"/>
<path d="M63.4646 136.033L63.2812 136.15L64.146 137.504L64.3294 137.387L63.4646 136.033Z" fill="#060633"/>
<path d="M64.6496 135.256L64.4663 135.373L65.9346 137.672L66.1179 137.554L64.6496 135.256Z" fill="#060633"/>
<path d="M251.18 167.154C251.18 167.154 251.364 158.553 259.966 157.499C268.567 156.445 285 157.064 285 157.064V162.017C285 162.017 266.358 161.85 260.15 162.017C257.556 162.084 254.427 162.318 251.18 167.154Z" fill="#373C52"/>
<path d="M265.053 161.063C265.053 161.063 264.35 186.716 260.484 188.808C256.619 190.917 251.465 188.34 254.393 183.42C257.322 178.5 259.079 178.266 260.133 172.526C261.187 166.786 261.187 161.046 261.187 161.046H265.053V161.063Z" fill="#373C52"/>
<path d="M272.784 161.063C272.784 161.063 270.09 178.634 271.027 183.437C271.964 188.239 276.298 190.699 280.632 188.122C284.967 185.545 283.678 181.797 283.678 181.797C283.678 181.797 280.147 184.608 277.353 182.499C274.558 180.391 275.964 160.126 275.964 160.126L272.784 161.063Z" fill="#373C52"/>
<path d="M44.9167 120.968C39.2271 120.968 33.8722 118.759 29.8561 114.727C25.8399 110.71 23.6143 105.355 23.6143 99.6659C23.6143 93.9763 25.8231 88.6214 29.8561 84.6053C33.8722 80.5891 39.2271 78.3635 44.9167 78.3635C50.6063 78.3635 55.9612 80.5724 59.9773 84.6053C63.9935 88.6214 66.2191 93.9763 66.2191 99.6659C66.2191 105.355 64.0102 110.71 59.9773 114.727C55.9612 118.743 50.6063 120.968 44.9167 120.968ZM44.9167 78.7651C39.3275 78.7651 34.0898 80.9405 30.1405 84.8898C26.1913 88.839 24.0159 94.0935 24.0159 99.6659C24.0159 105.255 26.1913 110.493 30.1405 114.442C34.0898 118.391 39.3443 120.567 44.9167 120.567C50.5059 120.567 55.7436 118.391 59.6929 114.442C63.6421 110.493 65.8175 105.238 65.8175 99.6659C65.8175 94.0767 63.6421 88.839 59.6929 84.8898C55.7436 80.9405 50.5059 78.7651 44.9167 78.7651Z" fill="#7FE1D3"/>
<path d="M44.9166 106.36C44.833 106.36 44.7493 106.36 44.6656 106.36V106.142C45.0003 106.142 45.3182 106.142 45.6529 106.142V106.36C45.4019 106.36 45.1676 106.36 44.9166 106.36ZM43.6783 106.343C43.3436 106.343 43.0089 106.326 42.691 106.309V106.092C43.0089 106.109 43.3436 106.109 43.6783 106.109V106.343ZM46.6402 106.326V106.109C46.9749 106.109 47.2929 106.092 47.6275 106.075L47.6443 106.293C47.3096 106.309 46.9749 106.326 46.6402 106.326ZM41.7037 106.276C41.369 106.259 41.0511 106.242 40.7164 106.226L40.7331 106.008C41.0511 106.025 41.3857 106.042 41.7204 106.058L41.7037 106.276ZM48.6148 106.259L48.5981 106.042C48.9328 106.025 49.2507 106.008 49.5854 105.975L49.6022 106.192C49.2842 106.209 48.9495 106.242 48.6148 106.259ZM39.7291 106.159C39.3944 106.125 39.0597 106.109 38.7418 106.075L38.7585 105.858C39.0764 105.891 39.4111 105.924 39.7458 105.941L39.7291 106.159ZM50.5895 106.109L50.5727 105.891C50.9074 105.858 51.2254 105.824 51.56 105.791L51.5768 106.008C51.2421 106.058 50.9241 106.092 50.5895 106.109ZM37.7545 105.975C37.4198 105.941 37.1018 105.891 36.7672 105.858L36.8006 105.64C37.1186 105.69 37.4532 105.724 37.7712 105.757L37.7545 105.975ZM52.5473 105.908L52.5139 105.69C52.8486 105.657 53.1665 105.607 53.4845 105.556L53.5179 105.774C53.2167 105.824 52.882 105.874 52.5473 105.908ZM35.7966 105.707C35.4619 105.657 35.1439 105.607 34.826 105.556L34.8595 105.339C35.1774 105.389 35.5121 105.439 35.83 105.489L35.7966 105.707ZM54.522 105.64L54.4885 105.422C54.8064 105.372 55.1411 105.322 55.4591 105.255L55.4925 105.473C55.1746 105.523 54.8399 105.59 54.522 105.64ZM33.8387 105.372C33.504 105.305 33.1861 105.238 32.8681 105.171L32.9183 104.954C33.2363 105.021 33.5542 105.088 33.8889 105.155L33.8387 105.372ZM56.4631 105.289L56.4129 105.071C56.7309 105.004 57.0655 104.937 57.3667 104.87L57.417 105.088C57.1157 105.155 56.7811 105.222 56.4631 105.289ZM31.9143 104.954C31.5796 104.87 31.2616 104.787 30.9604 104.703L31.0274 104.485C31.3286 104.569 31.6633 104.653 31.9812 104.736L31.9143 104.954ZM58.3875 104.837L58.3373 104.619C58.6553 104.536 58.9732 104.452 59.2912 104.351L59.3581 104.569C59.0402 104.669 58.7222 104.753 58.3875 104.837ZM30.0066 104.435C29.6886 104.335 29.3707 104.234 29.0695 104.117L29.1364 103.916C29.4376 104.017 29.7556 104.134 30.0735 104.218L30.0066 104.435ZM60.2952 104.285L60.2283 104.067C60.5462 103.967 60.8642 103.849 61.1486 103.732L61.2323 103.933C60.9311 104.067 60.6132 104.184 60.2952 104.285ZM28.1324 103.766C27.8144 103.632 27.5132 103.498 27.2287 103.364L27.3291 103.163C27.6136 103.297 27.9148 103.431 28.2328 103.565L28.1324 103.766ZM62.1527 103.582L62.069 103.381C62.387 103.247 62.6714 103.096 62.9559 102.963L63.0563 103.163C62.7718 103.297 62.4706 103.448 62.1527 103.582ZM26.3418 102.912C26.0406 102.745 25.7561 102.561 25.5051 102.377L25.639 102.193C25.89 102.377 26.1578 102.544 26.459 102.712L26.3418 102.912ZM63.9098 102.661L63.7926 102.477C64.0771 102.293 64.3448 102.109 64.5791 101.908L64.713 102.076C64.4787 102.276 64.211 102.477 63.9098 102.661ZM24.7354 101.741C24.4676 101.49 24.2668 101.222 24.0995 100.954L24.2836 100.837C24.4342 101.088 24.635 101.339 24.886 101.574L24.7354 101.741ZM65.4326 101.373L65.2652 101.239C65.4828 100.971 65.6501 100.703 65.7505 100.436L65.9513 100.519C65.8509 100.804 65.6668 101.105 65.4326 101.373ZM23.7313 100.001C23.7146 99.8835 23.7146 99.783 23.7146 99.6659C23.7146 99.3312 23.7983 98.9966 23.9489 98.6786L24.1497 98.779C24.0158 99.0802 23.9489 99.3814 23.9489 99.6827C23.9489 99.7831 23.9489 99.8835 23.9656 99.9839L23.7313 100.001ZM65.9011 99.5153C65.8844 99.2141 65.784 98.9129 65.6334 98.6284L65.8342 98.528C66.0015 98.846 66.1019 99.1806 66.1354 99.4986L65.9011 99.5153ZM24.6684 97.9758L24.5011 97.8252C24.7019 97.5909 24.9529 97.3566 25.2374 97.1391L25.3713 97.3064C25.1035 97.5407 24.8692 97.7582 24.6684 97.9758ZM65.0644 97.8754C64.8636 97.6578 64.6126 97.4403 64.3448 97.2395L64.4787 97.0554C64.7632 97.2729 65.0142 97.4905 65.2317 97.708L65.0644 97.8754ZM26.1745 96.7709L26.0574 96.5869C26.3251 96.4195 26.6263 96.2689 26.9275 96.1016L27.0279 96.3024C26.7267 96.453 26.4422 96.6203 26.1745 96.7709ZM63.5249 96.6873C63.2571 96.5367 62.9727 96.3693 62.6547 96.2187L62.7551 96.0179C63.0731 96.1685 63.3575 96.3358 63.6253 96.4864L63.5249 96.6873ZM27.9316 95.884L27.8479 95.6832C28.1324 95.5661 28.4503 95.4322 28.7683 95.3151L28.8519 95.5159C28.5173 95.6498 28.2161 95.7669 27.9316 95.884ZM61.7678 95.8338C61.4833 95.7167 61.1654 95.5995 60.8474 95.4824L60.9144 95.2816C61.2323 95.3987 61.5503 95.5159 61.8347 95.633L61.7678 95.8338ZM29.7723 95.2147L29.7054 94.9971C30.0066 94.8967 30.3245 94.7963 30.6592 94.7126L30.7262 94.9302C30.3915 95.0139 30.0735 95.1143 29.7723 95.2147ZM59.9271 95.1645C59.6258 95.0641 59.3079 94.9804 58.99 94.88L59.0569 94.6624C59.3748 94.7461 59.6928 94.8465 60.0107 94.9469L59.9271 95.1645ZM31.6633 94.6624L31.6131 94.4449C31.931 94.3612 32.249 94.2943 32.5836 94.2106L32.6338 94.4282C32.2824 94.5118 31.9645 94.5955 31.6633 94.6624ZM58.0361 94.629C57.7182 94.5453 57.4002 94.4784 57.0823 94.4114L57.1325 94.1939C57.4672 94.2608 57.7851 94.3445 58.1031 94.4114L58.0361 94.629ZM33.5709 94.2441L33.5207 94.0265C33.8387 93.9596 34.1734 93.9094 34.4913 93.8425L34.5248 94.06C34.2236 94.1102 33.8889 94.1772 33.5709 94.2441ZM56.1117 94.2106C55.7938 94.1437 55.4758 94.0935 55.1411 94.0265L55.1746 93.809C55.5093 93.8592 55.8272 93.9262 56.1452 93.9931L56.1117 94.2106ZM35.5121 93.8927L35.4786 93.6751C35.7966 93.6249 36.1313 93.5747 36.4492 93.5245L36.4827 93.7421C36.1647 93.7923 35.83 93.8425 35.5121 93.8927ZM54.1706 93.8759C53.8526 93.8257 53.5179 93.7755 53.2 93.7421L53.2334 93.5245C53.5681 93.5747 53.8861 93.6082 54.2208 93.6584L54.1706 93.8759ZM37.47 93.6249L37.4365 93.4074C37.7545 93.3739 38.0891 93.3404 38.4238 93.307L38.4406 93.5245C38.1226 93.558 37.7879 93.5915 37.47 93.6249ZM52.2127 93.6082C51.8947 93.5747 51.56 93.5413 51.2254 93.5078L51.2421 93.2902C51.5768 93.3237 51.8947 93.3572 52.2294 93.3906L52.2127 93.6082ZM39.4279 93.4241L39.4111 93.2066C39.7291 93.1731 40.0638 93.1564 40.3984 93.1396L40.4152 93.3572C40.0805 93.3739 39.7458 93.4074 39.4279 93.4241ZM50.2548 93.4074C49.9368 93.3739 49.6022 93.3572 49.2675 93.3405L49.2842 93.1229C49.6189 93.1396 49.9536 93.1731 50.2715 93.1898L50.2548 93.4074ZM41.3857 93.2902L41.369 93.0727C41.687 93.056 42.0216 93.0392 42.3563 93.0225L42.3731 93.2401C42.0551 93.2568 41.7204 93.2735 41.3857 93.2902ZM48.2802 93.2902C47.9622 93.2735 47.6275 93.2568 47.2929 93.2401V93.0225C47.6275 93.0392 47.9622 93.056 48.2802 93.0727V93.2902ZM43.3604 93.2233V93.0058C43.695 93.0058 44.013 92.989 44.3477 92.989V93.2066C44.013 93.2066 43.695 93.2066 43.3604 93.2233ZM46.3223 93.2233C46.0043 93.2233 45.6697 93.2066 45.335 93.2066V92.989C45.6697 92.989 46.0043 92.989 46.3223 93.0058V93.2233Z" fill="#7FE1D3"/>
<path d="M44.8664 120.885C44.515 120.885 44.1803 120.801 43.8289 120.65L43.9125 120.433C44.2305 120.567 44.5484 120.634 44.8496 120.65L44.8664 120.885ZM45.9039 120.684L45.8202 120.466C46.1047 120.349 46.3892 120.182 46.6737 119.964L46.8243 120.148C46.5231 120.383 46.2051 120.567 45.9039 120.684ZM42.942 120.081C42.691 119.881 42.4399 119.63 42.2057 119.345L42.373 119.195C42.6073 119.462 42.8416 119.713 43.0758 119.897L42.942 120.081ZM47.5606 119.429L47.3932 119.278C47.594 119.044 47.8116 118.776 47.9956 118.475L48.1797 118.609C47.9789 118.91 47.7781 119.178 47.5606 119.429ZM41.5865 118.508C41.4024 118.241 41.2351 117.939 41.0678 117.622L41.2686 117.521C41.4359 117.839 41.6032 118.124 41.7873 118.391L41.5865 118.508ZM48.7152 117.722L48.5144 117.605C48.665 117.32 48.8156 117.019 48.9662 116.701L49.167 116.802C49.0332 117.12 48.8826 117.437 48.7152 117.722ZM40.6159 116.701C40.4821 116.4 40.3482 116.082 40.2143 115.747L40.4319 115.664C40.5657 115.982 40.6996 116.3 40.8335 116.601L40.6159 116.701ZM49.5854 115.848L49.3678 115.764C49.485 115.463 49.6021 115.145 49.7193 114.81L49.9368 114.894C49.8364 115.212 49.7193 115.547 49.5854 115.848ZM39.8462 114.793C39.7458 114.476 39.6286 114.141 39.5282 113.806L39.7458 113.739C39.8462 114.074 39.9466 114.392 40.0637 114.71L39.8462 114.793ZM50.2715 113.907L50.0539 113.84C50.1543 113.522 50.238 113.187 50.3384 112.852L50.556 112.919C50.4723 113.254 50.3719 113.589 50.2715 113.907ZM39.2605 112.819C39.1768 112.501 39.0931 112.166 39.0095 111.815L39.227 111.765C39.3107 112.099 39.3944 112.434 39.478 112.752L39.2605 112.819ZM50.807 111.915L50.5894 111.865C50.6731 111.547 50.74 111.212 50.807 110.861L51.0245 110.911C50.9576 111.263 50.8906 111.597 50.807 111.915ZM38.7919 110.811C38.725 110.476 38.6581 110.141 38.5911 109.807L38.8254 109.773C38.8923 110.108 38.9593 110.443 39.0262 110.777L38.7919 110.811ZM51.2421 109.907L51.0245 109.857C51.0914 109.522 51.1416 109.188 51.2086 108.853L51.4429 108.886C51.3592 109.238 51.2923 109.572 51.2421 109.907ZM38.407 108.803C38.3568 108.468 38.3066 108.133 38.2564 107.782L38.4907 107.748C38.5409 108.083 38.5911 108.435 38.6413 108.753L38.407 108.803ZM51.56 107.882L51.3257 107.849C51.3759 107.514 51.4094 107.18 51.4596 106.828L51.6939 106.862C51.6604 107.213 51.6102 107.548 51.56 107.882ZM38.1226 106.761C38.0891 106.426 38.0389 106.075 38.0054 105.74L38.2397 105.724C38.2732 106.058 38.3066 106.41 38.3568 106.744L38.1226 106.761ZM51.811 105.841L51.5767 105.824C51.6102 105.489 51.6437 105.138 51.6771 104.803L51.9114 104.82C51.8779 105.155 51.8445 105.506 51.811 105.841ZM37.9218 104.72C37.8883 104.385 37.8716 104.034 37.8548 103.699L38.0891 103.682C38.1058 104.017 38.1393 104.368 38.156 104.703L37.9218 104.72ZM51.9951 103.799L51.7608 103.783C51.7775 103.448 51.811 103.096 51.8277 102.762L52.062 102.778C52.0286 103.113 52.0118 103.465 51.9951 103.799ZM37.7879 102.661C37.7711 102.327 37.7544 101.975 37.7544 101.641H37.9887C38.0054 101.975 38.0054 102.327 38.0222 102.661H37.7879ZM52.0955 101.741H51.8612C51.8779 101.406 51.8779 101.055 51.8779 100.72H52.1122C52.1122 101.055 52.0955 101.406 52.0955 101.741ZM37.7209 100.62C37.7209 100.302 37.7209 99.9839 37.7209 99.6659V99.5822H37.9552V99.6659C37.9552 99.9839 37.9552 100.302 37.9552 100.603L37.7209 100.62ZM52.129 99.6994H51.8947V99.6659C51.8947 99.3312 51.8947 98.9965 51.8947 98.6619H52.129C52.129 98.9965 52.129 99.3312 52.129 99.6659V99.6994ZM37.9552 98.5615H37.7209C37.7209 98.2268 37.7377 97.8754 37.7544 97.5407H37.9887C37.972 97.8921 37.9552 98.2268 37.9552 98.5615ZM51.8612 97.6411C51.8445 97.3064 51.8445 96.955 51.8277 96.6203L52.062 96.6036C52.0788 96.9383 52.0955 97.2897 52.0955 97.6244L51.8612 97.6411ZM38.0222 96.5199L37.7879 96.5032C37.8046 96.1685 37.8214 95.8171 37.8548 95.4824L38.0891 95.4992C38.0556 95.8338 38.0389 96.1852 38.0222 96.5199ZM51.7608 95.5996C51.7441 95.2649 51.7106 94.9135 51.6771 94.5788L51.9114 94.562C51.9449 94.8967 51.9616 95.2481 51.9951 95.5828L51.7608 95.5996ZM38.156 94.4784L37.9218 94.4616C37.9552 94.1269 37.9887 93.7755 38.0222 93.4409L38.2564 93.4576C38.223 93.809 38.1895 94.1437 38.156 94.4784ZM51.5935 93.5747C51.56 93.2401 51.5265 92.8886 51.4763 92.5539L51.7106 92.5205C51.7441 92.8552 51.7943 93.2066 51.8277 93.5413L51.5935 93.5747ZM38.3736 92.4535L38.1393 92.4201C38.1728 92.0854 38.223 91.734 38.2732 91.3993L38.5074 91.4328C38.4572 91.7675 38.407 92.1021 38.3736 92.4535ZM51.3425 91.5332C51.2923 91.1985 51.2421 90.8471 51.1919 90.5291L51.4261 90.4957C51.4763 90.8303 51.5265 91.165 51.5767 91.5164L51.3425 91.5332ZM38.6581 90.4287L38.4238 90.3953C38.474 90.0606 38.5409 89.7092 38.6079 89.3912L38.8254 89.4414C38.7752 89.7426 38.725 90.094 38.6581 90.4287ZM51.0245 89.5251C50.9576 89.1904 50.8906 88.8557 50.8237 88.521L51.0412 88.4709C51.1082 88.8055 51.1751 89.1402 51.2421 89.4749L51.0245 89.5251ZM39.0429 88.4206L38.8254 88.3704C38.8923 88.0358 38.976 87.7011 39.0597 87.3664L39.2772 87.4166C39.1935 87.7513 39.1099 88.086 39.0429 88.4206ZM50.5894 87.517C50.5058 87.1823 50.4221 86.8476 50.3384 86.5297L50.556 86.4628C50.6396 86.7807 50.7233 87.1154 50.807 87.4668L50.5894 87.517ZM39.5115 86.4293L39.2939 86.3623C39.3776 86.0277 39.478 85.693 39.5784 85.3751L39.796 85.442C39.7123 85.7599 39.6119 86.0946 39.5115 86.4293ZM50.0707 85.5424C49.9703 85.2077 49.8699 84.8898 49.7527 84.5718L49.9703 84.5049C50.0874 84.8228 50.1878 85.1575 50.2882 85.4755L50.0707 85.5424ZM40.1139 84.4881L39.8964 84.4045C40.0135 84.0698 40.1307 83.7518 40.2645 83.4339L40.4821 83.5176C40.3649 83.8355 40.2311 84.1535 40.1139 84.4881ZM49.4013 83.618C49.2674 83.3 49.1336 82.9821 48.9997 82.6809L49.2005 82.5805C49.3344 82.8817 49.4682 83.1996 49.6021 83.5343L49.4013 83.618ZM40.8837 82.5972L40.6829 82.4968C40.8335 82.1788 40.9841 81.8609 41.1514 81.5764L41.3522 81.6936C41.1849 81.9613 41.0343 82.2792 40.8837 82.5972ZM48.5479 81.7772C48.3805 81.4593 48.1965 81.1748 48.0291 80.9071L48.2132 80.7732C48.3973 81.0409 48.5646 81.3421 48.7487 81.6601L48.5479 81.7772ZM41.871 80.8234L41.6869 80.6895C41.8877 80.3883 42.1053 80.1038 42.3228 79.8696L42.4901 80.0202C42.2726 80.2544 42.0718 80.5222 41.871 80.8234ZM47.4267 80.1038C47.1924 79.8361 46.9581 79.6018 46.7071 79.401L46.8577 79.2169C47.1087 79.4177 47.3598 79.6687 47.594 79.9532L47.4267 80.1038ZM43.2097 79.3341L43.0758 79.15C43.3771 78.9157 43.6783 78.7484 43.9962 78.6312L44.0799 78.8488C43.7787 78.9492 43.4942 79.1165 43.2097 79.3341ZM45.8704 78.8822C45.5525 78.7484 45.2345 78.6814 44.9166 78.6814V78.4472C45.268 78.4472 45.6194 78.5141 45.9541 78.6647L45.8704 78.8822Z" fill="#7FE1D3"/>
<path d="M66.0182 99.7496H65.9345V99.599H66.0182V99.7496ZM65.2484 99.7496H64.5623V99.599H65.2484V99.7496ZM63.893 99.7496H63.2069V99.599H63.893V99.7496ZM62.5375 99.7496H61.8514V99.599H62.5375V99.7496ZM61.182 99.7496H60.496V99.599H61.182V99.7496ZM59.8099 99.7496H59.1238V99.599H59.8099V99.7496ZM58.4544 99.7496H57.7683V99.599H58.4544V99.7496ZM57.0989 99.7496H56.4129V99.599H57.0989V99.7496ZM55.7435 99.7496H55.0574V99.599H55.7435V99.7496ZM54.388 99.7496H53.7019V99.599H54.388V99.7496ZM53.0326 99.7496H52.3465V99.599H53.0326V99.7496ZM51.6604 99.7496H50.9743V99.599H51.6604V99.7496ZM50.3049 99.7496H49.6188V99.599H50.3049V99.7496ZM48.9495 99.7496H48.2634V99.599H48.9495V99.7496ZM47.594 99.7496H46.9079V99.599H47.594V99.7496ZM46.2386 99.7496H45.5525V99.599H46.2386V99.7496ZM44.8831 99.7496H44.197V99.599H44.8831V99.7496ZM43.5109 99.7496H42.8248V99.599H43.5109V99.7496ZM42.1555 99.7496H41.4694V99.599H42.1555V99.7496ZM40.8 99.7496H40.1139V99.599H40.8V99.7496ZM39.4445 99.7496H38.7584V99.599H39.4445V99.7496ZM38.0891 99.7496H37.403V99.599H38.0891V99.7496ZM36.7336 99.7496H36.0475V99.599H36.7336V99.7496ZM35.3614 99.7496H34.6753V99.599H35.3614V99.7496ZM34.006 99.7496H33.3199V99.599H34.006V99.7496ZM32.6505 99.7496H31.9644V99.599H32.6505V99.7496ZM31.2951 99.7496H30.609V99.599H31.2951V99.7496ZM29.9396 99.7496H29.2535V99.599H29.9396V99.7496ZM28.5674 99.7496H27.8813V99.599H28.5674V99.7496ZM27.212 99.7496H26.5259V99.599H27.212V99.7496ZM25.8565 99.7496H25.1871V99.599H25.8732V99.7496H25.8565ZM24.501 99.7496H23.8149V99.599H24.501V99.7496Z" fill="#7FE1D3"/>
<path d="M45.0002 120.768H44.8496V120.684H45.0002V120.768ZM45.0002 119.998H44.8496V119.312H45.0002V119.998ZM45.0002 118.642H44.8496V117.956H45.0002V118.642ZM45.0002 117.287H44.8496V116.601H45.0002V117.287ZM45.0002 115.915H44.8496V115.229H45.0002V115.915ZM45.0002 114.559H44.8496V113.873H45.0002V114.559ZM45.0002 113.204H44.8496V112.518H45.0002V113.204ZM45.0002 111.848H44.8496V111.162H45.0002V111.848ZM45.0002 110.493H44.8496V109.807H45.0002V110.493ZM45.0002 109.137H44.8496V108.451H45.0002V109.137ZM45.0002 107.765H44.8496V107.079H45.0002V107.765ZM45.0002 106.41H44.8496V105.724H45.0002V106.41ZM45.0002 105.054H44.8496V104.368H45.0002V105.054ZM45.0002 103.699H44.8496V103.013H45.0002V103.699ZM45.0002 102.343H44.8496V101.657H45.0002V102.343ZM45.0002 100.988H44.8496V100.302H45.0002V100.988ZM45.0002 99.6157H44.8496V98.9296H45.0002V99.6157ZM45.0002 98.2603H44.8496V97.5741H45.0002V98.2603ZM45.0002 96.9048H44.8496V96.2187H45.0002V96.9048ZM45.0002 95.5493H44.8496V94.8632H45.0002V95.5493ZM45.0002 94.1939H44.8496V93.5078H45.0002V94.1939ZM45.0002 92.8384H44.8496V92.1523H45.0002V92.8384ZM45.0002 91.4662H44.8496V90.7801H45.0002V91.4662ZM45.0002 90.1108H44.8496V89.4247H45.0002V90.1108ZM45.0002 88.7553H44.8496V88.0692H45.0002V88.7553ZM45.0002 87.3999H44.8496V86.7138H45.0002V87.3999ZM45.0002 86.0444H44.8496V85.3583H45.0002V86.0444ZM45.0002 84.6889H44.8496V84.0028H45.0002V84.6889ZM45.0002 83.3168H44.8496V82.6307H45.0002V83.3168ZM45.0002 81.9613H44.8496V81.2752H45.0002V81.9613ZM45.0002 80.6059H44.8496V79.9197H45.0002V80.6059ZM45.0002 79.2504H44.8496V78.5643H45.0002V79.2504Z" fill="#7FE1D3"/>
<path d="M261.823 87.2995L246.361 82.9486L246.612 77.7109L269.638 62.4996L275.512 64.1563L270.057 83.5343L274.307 84.7392L272.717 90.3953L268.467 89.1904L266.542 96.0179L259.899 94.1437L261.823 87.2995ZM263.413 81.6601L266.191 71.8037L255.013 79.2839L263.413 81.6601Z" fill="#373C52"/>
<path d="M86.7351 46.7027L89.2117 38.2018C93.3618 39.5907 96.9596 39.8752 100.424 38.3524C104.456 36.5786 106.113 33.5163 104.54 29.9352C103.068 26.5716 99.3526 25.8688 95.2695 27.6594C92.8096 28.7471 90.8684 30.387 89.3623 31.9935L82.9365 30.8723L75.5735 11.0759L99.637 0.5L102.95 8.04706L86.2665 15.3766L88.7934 22.3379C90.1823 21.2502 91.4708 20.3633 93.6463 19.4095C101.26 16.0627 108.975 17.0834 112.907 26.0361C116.538 34.3195 112.974 42.1678 103.971 46.117C97.7126 48.8948 92.1402 48.6606 86.7351 46.7027Z" fill="#F8D451"/>
<path d="M224.557 74.8494C224.573 74.5649 224.791 71.5528 229.376 71.4021C229.376 71.4021 227.117 71.6699 226.732 72.6572C226.732 72.6572 228.272 71.4356 229.527 71.8205C230.782 72.2221 231.518 74.4143 231.518 75.1338C231.518 75.8534 230.832 78.1794 230.029 78.3802C229.727 78.4472 229.376 78.4304 229.075 78.3802C229.292 78.7149 229.493 79.0663 229.694 79.4847C231.518 83.2498 229.644 86.9146 228.088 86.513C227.1 86.2452 226.816 87.9521 226.816 87.9521L217.16 80.1373C217.143 80.1206 220.691 72.7743 224.557 74.8494Z" fill="#412013"/>
<path d="M205.714 119.412C208.542 119.128 211.889 118.642 213.228 117.806C215.253 116.567 218.784 111.346 220.959 107.548C221.026 107.447 221.16 105.523 221.21 105.439C222.348 103.414 222.85 104.669 222.917 103.063C222.967 102.092 222.85 101.239 222.649 100.519C222.381 99.5488 221.946 98.7958 221.495 98.2268C221.428 98.1264 221.377 98.0427 221.277 97.9591C220.524 97.0721 219.804 96.704 219.804 96.704C219.436 96.5534 219.035 96.7375 218.616 97.1893V97.206C218.282 97.5574 217.897 98.1097 217.545 98.7958C217.529 98.8125 217.512 98.8292 217.512 98.846C217.428 98.9798 217.361 99.1472 217.261 99.3145C217.227 99.348 217.211 99.3982 217.194 99.4317C217.027 99.7831 216.859 100.168 216.675 100.553C214.767 104.72 213.328 111.597 211.638 113.472C210.902 114.275 206.969 115.279 204.325 116.467C202.418 117.27 203.84 119.613 205.714 119.412Z" fill="#E2B097"/>
<path d="M221.21 185.528L223.268 186.298C223.268 186.298 232.171 173.948 233.275 163.071C233.476 161.13 233.409 159.256 232.974 157.516C232.974 157.516 233.058 157.013 233.208 156.143C233.275 155.725 233.359 155.24 233.459 154.671C233.744 153.014 234.145 150.738 234.597 148.161C235.651 142.221 237.007 134.607 238.061 129.017L237.509 128.833L231.535 126.909L230.297 122.976L225.845 121.805C225.845 121.805 224.858 123.746 223.954 132.933C223.787 134.138 223.636 135.46 223.536 136.916C223.185 141.317 223.168 146.772 223.954 153.014C224.155 154.604 224.423 156.26 224.741 157.951C224.975 159.189 225.009 160.879 224.908 162.837C224.456 171.723 221.21 185.528 221.21 185.528Z" fill="#7FE1D3"/>
<path d="M223.536 136.916L233.208 156.143C233.275 155.725 233.359 155.24 233.459 154.671C233.744 153.014 234.146 150.738 234.597 148.161C235.652 142.221 237.007 134.607 238.061 129.017L237.509 128.833L231.535 126.909L230.297 122.976L224.205 121.37C224.205 121.37 223.536 133.251 223.536 136.916Z" fill="#6FD2CC"/>
<path d="M227.787 124.282L228.004 122.357C231.753 123.361 241.776 119.579 241.776 119.579C241.776 119.579 245.408 122.776 244.939 130.423C244.705 134.155 244.286 150.035 243.835 154.738C243.667 156.445 243.533 157.649 243.483 158.135C243.466 158.285 243.517 158.419 243.6 158.553C244.253 159.657 244.788 160.812 245.24 162C249.591 173.614 244.571 187.921 244.571 187.921L243.266 187.403C243.266 187.403 240.404 171.488 238.078 164.443C237.676 163.255 237.308 162.318 236.957 161.749C235.953 160.109 234.999 157.449 234.162 154.286C232.556 148.295 231.251 140.48 230.397 134.473C230.247 134.456 227.787 124.282 227.787 124.282Z" fill="#7FE1D3"/>
<path d="M220.624 101.005C221.796 101.557 223.218 101.925 224.942 102.009C231.384 102.36 232.857 96.704 233.125 92.9556C232.187 92.6209 231.384 92.6544 230.916 92.6711C230.748 92.6878 230.564 92.6878 230.397 92.7046C229.761 92.7548 229.125 92.487 228.74 91.985C228.004 91.0479 227.151 89.3578 226.582 87.0317L226.297 87.1656L221.645 89.3578C221.645 89.3578 222.147 90.8638 222.498 92.3197C222.649 92.9389 222.783 93.558 222.85 94.0433C222.9 94.4951 222.649 94.9302 222.231 95.0975C222.164 95.2147 221.16 97.7917 220.624 101.005Z" fill="#E2B097"/>
<path d="M221.628 89.3578C221.628 89.3578 222.13 90.8638 222.482 92.3197C225.193 91.5667 226.029 88.7051 226.28 87.1656L221.628 89.3578Z" fill="#DA9F84"/>
<path d="M221.059 90.9642C221.059 90.9642 227.569 89.4582 226.565 85.4253C225.561 81.3924 225.728 78.4806 221.528 79.2671C217.328 80.0536 216.909 81.794 216.909 83.2331C216.926 84.6388 219.336 91.2487 221.059 90.9642Z" fill="#E2B097"/>
<path d="M216.558 80.9238C217.261 79.4679 218.081 79.5349 218.6 79.8026C221.662 76.9746 224.657 79.2839 224.657 79.2839C225.812 82.0784 228.305 83.2164 228.305 83.2164C228.305 83.2164 227.301 84.2371 224.406 84.2204C223.519 84.2204 222.632 83.802 221.829 83.2498C223.385 84.8228 225.226 85.7767 225.226 85.7767C221.595 85.0906 219.168 80.8903 218.917 80.4385C218.616 80.8903 218.031 81.8609 217.98 82.6809C217.913 83.7853 218.298 85.944 217.662 86.0277C217.646 86.0109 215.504 83.1159 216.558 80.9238Z" fill="#412013"/>
<path d="M239.233 112.166C238.998 111.915 238.797 111.631 238.63 111.346C238.178 110.627 237.894 109.807 237.81 108.937C237.459 105.556 237.593 102.394 237.559 100.469C237.208 100.201 236.856 99.9671 236.538 99.7329C236.053 99.3815 235.618 99.0468 235.3 98.7121C234.949 98.3439 234.731 97.9591 234.698 97.5407C234.681 97.2228 234.698 96.8881 234.731 96.5534C234.748 96.4028 234.765 96.2355 234.798 96.0849C235.049 94.4449 235.735 92.9723 235.735 92.9723C234.011 92.2695 230.029 92.7213 230.029 92.7213C230.029 92.7213 229.627 96.0012 228.121 97.3399C227.519 97.8754 224.155 99.7831 222.632 97.8419C222.013 97.0554 222.549 95.0139 222.599 94.8633C222.599 94.8633 220.005 95.6665 218.499 97.1056C217.512 98.0595 216.943 99.85 216.708 100.553C216.708 100.553 217.863 100.503 218.784 101.155C218.599 102.427 218.516 103.866 219.035 105.255C219.085 105.389 219.135 105.506 219.202 105.64C220.842 109.154 223.854 123.713 223.854 123.713C224.774 126.524 243.533 123.194 243.583 120.818C244.269 118.257 241.04 114.208 239.233 112.166Z" fill="#E1558B"/>
<path d="M229.242 118.793C233.208 118.743 236.572 114.626 238.614 111.346C238.162 110.627 237.877 109.807 237.794 108.937C237.442 105.556 237.576 102.394 237.543 100.469C237.191 100.201 236.84 99.9671 236.522 99.7329C236.036 99.3814 235.601 99.0468 235.283 98.7121C232.037 104.184 223.871 118.86 229.242 118.793Z" fill="#D23E7D"/>
<path d="M236.957 188.975H247.282C247.282 188.975 247.533 187.403 246.997 186.214C246.478 185.076 245.675 184.541 245.859 183.169C245.207 183.838 244.136 184.608 242.646 184.407C242.462 184.708 241.458 186.298 240.856 186.733C240.186 187.202 237.174 187.018 236.957 188.975Z" fill="#F8D451"/>
<path d="M214.784 188.975H225.109C225.109 188.975 225.494 187.336 224.825 186.214C224.222 185.227 224.456 184.658 224.892 183.838C224.423 184.022 223.821 184.206 223.151 184.173C222.632 184.139 222.097 183.905 221.612 183.637C221.16 184.139 219.269 186.298 218.666 186.733C217.997 187.202 214.985 187.018 214.784 188.975Z" fill="#F8D451"/>
<path d="M109.945 168.978L126.679 150.035C134.812 158.335 142.008 162.586 152.416 163.824C167.594 165.632 177.066 155.123 180.797 138.757C174.187 143.158 165.502 145.534 154.742 144.245C127.934 141.066 112.405 124.181 115.417 98.779C118.379 73.9122 139.782 57.8475 167.661 61.1609C184.244 63.1355 193.465 68.3398 201.698 78.7986C209.463 88.6717 213.696 102.762 210.768 127.461C206.015 167.506 183.893 192.607 148.785 188.44C130.779 186.298 119.316 178.851 109.945 168.978ZM185.232 106.008C186.537 95.0641 179.358 86.1616 165.77 84.5551C152.366 82.9654 143.848 89.8263 142.51 101.122C141.204 112.066 148.417 120.617 161.838 122.207C175.242 123.78 183.927 116.935 185.232 106.008Z" fill="#7FE1D3"/>
<path d="M213.412 121.587L213.83 123.194C213.83 123.194 218.984 122.106 220.122 121.872H220.139C222.08 121.403 224.256 120.851 226.08 120.232C227.368 119.78 228.489 119.295 229.242 118.826C229.326 118.776 229.376 118.726 229.46 118.676C231.284 117.354 233.426 113.472 235.116 109.321C235.35 108.753 235.568 108.167 235.785 107.615C236.555 105.54 237.174 103.481 237.559 101.724C237.793 100.67 237.944 99.6994 237.977 98.9129C237.994 98.6284 238.011 98.3774 237.994 98.1264C237.961 93.6249 235.735 93.0058 235.735 93.0058C235.685 92.989 235.635 92.9723 235.584 92.9556C235.2 92.8886 234.798 93.1564 234.38 93.6751C233.844 94.311 233.292 95.3485 232.723 96.6036C231.836 98.6117 230.899 101.205 230.045 103.766C229.56 105.171 229.092 106.594 228.64 107.899C228.372 108.686 228.104 109.439 227.87 110.125C227.385 111.43 226.95 112.484 226.565 113.154C226.314 113.589 225.594 114.191 224.657 114.877C222.95 116.015 213.412 121.587 213.412 121.587Z" fill="#E2B097"/>
<path d="M232.238 96.7375C235.233 95.9175 237.994 98.0762 237.994 98.0762C237.961 93.5747 235.718 92.9723 235.718 92.9723C234.815 92.5874 233.309 94.311 232.238 96.7375Z" fill="#E1558B"/>
<path d="M214.399 121.002C214.399 121.002 211.772 122.023 211.27 122.424C210.768 122.826 209.781 124.131 209.613 124.817C209.613 124.817 209.63 125.102 209.881 125.102C210.149 125.102 210.734 124.098 211.17 124.248C211.17 124.248 210.617 125.587 210.299 125.922C209.981 126.256 209.797 127.963 209.864 128.331C209.931 128.699 212.14 126.942 213.06 126.139C213.546 125.721 213.546 124.683 213.696 123.512C213.83 122.491 216.658 121.905 216.658 121.905L214.399 121.002Z" fill="#E2B097"/>
<path d="M101.996 177.596H62.2029V162.486H102.13C105.36 162.486 107.97 165.096 107.97 168.326V171.622C107.987 174.919 105.31 177.596 101.996 177.596Z" fill="#FCECDB"/>
<path d="M142.125 168.694V170.97C142.125 172.191 141.823 173.329 141.288 174.3C140.217 176.274 138.226 177.596 135.933 177.596H60.9813C60.4793 177.596 60.0776 177.161 60.0776 176.643V176.308C60.0776 175.772 60.4793 175.354 60.9813 175.354H106.665C106.916 175.036 107.117 174.685 107.301 174.316C107.736 173.446 107.97 172.476 107.97 171.421V168.526C107.97 167.991 107.904 167.472 107.786 166.987C107.586 166.15 107.217 165.397 106.732 164.745H60.9813C60.4793 164.745 60.0776 164.31 60.0776 163.791V163.456C60.0776 162.921 60.4793 162.502 60.9813 162.502H136.301C138.962 162.502 141.188 164.41 141.89 167.004C142.041 167.522 142.125 168.108 142.125 168.694Z" fill="#E77D3B"/>
<path d="M141.89 166.987H107.803C107.602 166.15 107.234 165.397 106.749 164.745H60.9813C60.4793 164.745 60.0776 164.31 60.0776 163.791V163.456C60.0776 162.921 60.4793 162.502 60.9813 162.502H136.301C138.962 162.486 141.204 164.376 141.89 166.987Z" fill="#D87131"/>
<path d="M62.2029 170.033L67.7586 170.284L62.2029 170.451V170.033Z" fill="#F4D2B8"/>
<path d="M62.2029 172.409L75.406 172.66L62.2029 172.81V172.409Z" fill="#F4D2B8"/>
<path d="M75.5902 189.327H114.647V177.563H75.2388C72.3103 177.563 69.9341 179.939 69.9341 182.868V183.688C69.9341 186.8 72.4609 189.327 75.5902 189.327Z" fill="#F8D451"/>
<path d="M112.756 189.327H157.286V177.563H112.639C109.661 177.563 107.251 179.973 107.251 182.951V183.821C107.251 186.85 109.728 189.327 112.756 189.327Z" fill="#FCECDB"/>
<path d="M104.306 189.327H158.775C159.227 189.327 159.595 188.959 159.595 188.507V188.39C159.595 187.938 159.227 187.57 158.775 187.57H104.306C103.854 187.57 103.486 187.938 103.486 188.39V188.507C103.486 188.959 103.854 189.327 104.306 189.327Z" fill="#F8D451"/>
<path d="M104.306 179.32H158.775C159.227 179.32 159.595 178.952 159.595 178.5V178.383C159.595 177.931 159.227 177.563 158.775 177.563H104.306C103.854 177.563 103.486 177.931 103.486 178.383V178.5C103.486 178.952 103.854 179.32 104.306 179.32Z" fill="#F8D451"/>
<path d="M157.286 183.453L151.211 183.637L157.286 183.754V183.453Z" fill="#F4D2B8"/>
<path d="M157.286 180.742L142.861 180.943L157.286 181.06V180.742Z" fill="#F4D2B8"/>
<path d="M142.995 180.893C142.995 180.893 143.614 181.395 143.815 182.232C143.848 182.382 143.882 182.533 143.882 182.7C143.915 183.805 143.882 186.298 143.882 186.298L145.706 185.043L147.53 186.298V182.918C147.53 182.282 147.379 181.663 147.078 181.244C146.944 181.044 146.76 180.893 146.576 180.893H142.995Z" fill="#E1558B"/>
<path d="M142.995 180.893C142.995 180.893 143.614 181.395 143.815 182.232L147.48 182.282C147.48 182.282 147.329 181.094 146.576 180.893H142.995Z" fill="#D23E7D"/>
<path d="M108.389 162.502H66.3696V145.233H108.539C112.087 145.233 114.982 148.111 114.982 151.675V155.926C114.965 159.557 112.02 162.502 108.389 162.502Z" fill="#FCECDB"/>
<path d="M114.999 151.943V155.658C114.982 157.248 114.196 158.62 113.007 159.356C112.422 159.724 111.769 159.925 111.05 159.925H65.0812C64.5457 159.925 64.1106 160.41 64.1106 160.996V161.431C64.1106 162.017 64.5457 162.502 65.0812 162.502H144.501C146.777 162.502 148.785 161.264 150.006 159.356C150.776 158.151 151.228 156.696 151.228 155.106V152.177C151.228 151.09 151.01 150.069 150.609 149.148C149.588 146.822 147.429 145.216 144.919 145.216H65.0979C64.5624 145.216 64.1273 145.701 64.1273 146.287V146.722C64.1273 147.308 64.5624 147.793 65.0979 147.793H111.2C112.305 147.793 113.292 148.312 113.995 149.132C114.614 149.885 114.982 150.855 114.999 151.943Z" fill="#E1558B"/>
<path d="M64.1106 160.996V161.431C64.1106 162.017 64.5457 162.502 65.0812 162.502H144.501C146.777 162.502 148.785 161.264 150.006 159.356H113.007C112.422 159.724 111.769 159.925 111.05 159.925H65.0812C64.5457 159.925 64.1106 160.41 64.1106 160.996Z" fill="#D23E7D"/>
<path d="M66.3696 153.867L72.26 154.169L66.3696 154.336V153.867Z" fill="#F4D2B8"/>
<path d="M66.3696 149.902L80.3928 150.186L66.3696 150.353V149.902Z" fill="#F4D2B8"/>
<path d="M107.669 150.119C107.669 150.119 106.749 150.671 106.431 151.575C106.381 151.726 106.347 151.893 106.331 152.077C106.28 153.282 106.331 155.976 106.331 155.976L103.603 154.621L100.875 155.976V152.311C100.875 151.625 101.11 150.939 101.545 150.504C101.762 150.286 102.013 150.136 102.298 150.136H107.669V150.119Z" fill="#E1558B"/>
<path d="M107.67 150.119C107.67 150.119 106.749 150.671 106.432 151.575L100.959 151.625C100.959 151.625 101.177 150.337 102.298 150.119H107.67Z" fill="#D23E7D"/>
<path d="M164.197 86.0109C164.465 86.3121 164.498 86.6636 164.364 87.015C164.113 87.6843 163.31 88.4374 162.373 89.1904C162.256 89.2908 162.139 89.3745 162.055 89.4581C162.038 89.4749 162.005 89.5083 161.988 89.5251C161.971 89.5418 161.955 89.5586 161.938 89.5753C161.068 90.3785 161.386 90.5626 159.829 92.2025C158.039 94.06 156.817 94.0935 156.466 93.9261C156.165 93.7755 156.767 92.7882 157.436 91.6838C157.47 91.6336 157.503 91.5834 157.537 91.5164C157.62 91.3658 157.721 91.2152 157.805 91.0646C158.591 89.7259 158.39 89.1067 158.206 87.1154C158.056 85.5089 155.696 78.0957 155.696 78.0957L159.127 77.51C159.127 77.51 160.164 83.4004 161.302 84.3208C161.904 84.8061 162.59 84.8061 163.176 85.1742C163.21 85.191 163.26 85.2244 163.293 85.2579C163.595 85.4754 163.929 85.7097 164.197 86.0109Z" fill="#E2B097"/>
<path d="M164.197 86.0109C164.465 86.3121 164.498 86.6636 164.364 87.015C164.063 87.6843 163.276 88.4374 162.373 89.1904C162.256 89.2908 162.155 89.3745 162.055 89.4581C162.038 89.4749 162.005 89.5083 161.988 89.5251C161.971 89.5418 161.954 89.5586 161.938 89.5753C161.068 90.3785 161.385 90.5626 159.829 92.2025C158.039 94.06 156.817 94.0935 156.466 93.9261C156.164 93.7755 156.767 92.7882 157.436 91.6838C157.788 91.5499 159.394 90.8973 160.632 89.341C161.703 87.9688 162.423 86.195 163.159 85.1742C163.193 85.191 163.243 85.2244 163.276 85.2579C163.594 85.4754 163.929 85.7097 164.197 86.0109Z" fill="#233862"/>
<path d="M136.569 83.869C136.351 84.9232 134.845 84.7559 133.172 84.3375C131.482 83.9192 131.883 84.4212 129.49 84.1535C127.097 83.8857 126.361 82.9988 126.294 82.6307C126.227 82.3127 127.415 82.1956 128.687 82.0617C128.855 82.045 129.005 82.0282 129.172 82.0115C130.612 81.8274 131.666 80.9071 132.954 80.1373C134.193 79.4177 136.033 76.4893 136.033 76.4893L139.33 76.757C139.33 76.757 137.606 79.3843 136.937 80.5222C136.552 81.1915 136.569 82.0784 136.619 82.7645C136.619 83.1159 136.636 83.5008 136.569 83.869Z" fill="#E2B097"/>
<path d="M133.155 84.3375C131.465 83.9192 131.867 84.4212 129.474 84.1535C127.081 83.8857 126.345 82.9988 126.278 82.6307C126.211 82.3127 127.399 82.1956 128.671 82.0617L128.687 82.0784C128.687 82.0784 130.126 83.0992 132.118 83.1494C133.741 83.1829 135.465 82.7311 136.586 82.7478C136.619 83.1159 136.636 83.5008 136.552 83.869C136.351 84.9232 134.845 84.7559 133.155 84.3375Z" fill="#233862"/>
<path d="M149.17 62.8343L152.249 71.1009L156.265 81.8944C156.265 81.8944 157.353 81.9948 158.39 81.6936C159.344 81.4091 160.448 80.6895 160.448 80.6895C160.448 80.6895 159.327 69.0928 157.252 62.4327C156.717 60.7258 156.114 59.3369 155.462 58.5671C152.249 54.7852 149.17 62.8343 149.17 62.8343Z" fill="#D23E7D"/>
<path d="M152.299 49.6981C154.106 49.1124 158.892 49.7316 164.013 50.6687C165.1 50.8695 166.222 50.3674 166.791 49.4303L167.042 49.0287L179.508 48.0582C179.508 48.0582 183.508 57.128 181.366 62.9849C180.764 64.6248 174.522 64.8257 169.25 64.4073C163.076 63.9053 156.131 60.1401 155.244 59.9728C153.771 59.6716 153.186 62.6168 151.73 65.6791C150.257 68.7581 137.958 79.3006 137.958 79.3006C137.958 79.3006 136.067 79.3173 135.28 79.0329C134.444 78.7149 134.126 78.3133 134.126 78.3133C134.126 78.3133 147.747 51.1707 152.299 49.6981Z" fill="#E1558B"/>
<path d="M165.318 33.4159C169.083 36.8129 177.718 39.9923 177.768 39.9756C177.768 39.9756 180.697 41.9502 182.822 41.1637C186.353 39.8585 189.265 34.8048 184.797 28.7972C182.571 25.8019 180.647 24.7644 181.316 20.9657C182.035 16.8659 180.446 11.5779 175.693 11.1094C175.292 11.0759 172.899 10.6241 171.158 11.0759C166.707 12.2306 159.06 30.9727 165.318 33.4159Z" fill="#412013"/>
<path d="M170.455 28.4291C170.439 28.4291 172.413 29.6674 173.986 29.3829C175.476 29.0985 176.881 27.1741 176.865 27.1573C176.262 26.99 175.844 26.2537 176.162 22.6057L175.877 22.6391L171.108 23.1913C171.108 23.1913 171.091 24.6807 170.991 26.0696C170.907 27.2243 170.74 28.3287 170.455 28.4291Z" fill="#E2B097"/>
<path d="M171.125 23.1746C171.125 23.1746 171.108 24.664 171.008 26.0529C173.635 26.1868 175.225 23.9109 175.894 22.6391L171.125 23.1746Z" fill="#DA9F84"/>
<path d="M170.137 24.4297C170.137 24.4297 176.346 25.0488 176.664 21.1665C176.982 17.301 178.002 14.7741 174.053 14.2219C170.104 13.6697 169.217 15.0753 168.799 16.3471C168.364 17.6189 168.531 24.1619 170.137 24.4297Z" fill="#E2B097"/>
<path d="M170.807 13.6195C170.807 13.6195 171.593 18.3385 175.124 19.4597C177.701 20.2796 178.873 19.7441 178.873 19.7441C178.873 19.7441 177.634 18.1042 177.199 15.8116C177.065 15.1423 176.597 14.59 175.944 14.3725C174.087 13.7533 171.861 12.1134 170.807 13.6195Z" fill="#412013"/>
<path d="M171.962 14.6235C171.962 14.6235 170.79 14.8913 169.753 16.3973C169.184 17.2173 168.531 19.2923 168.648 20.2127C168.648 20.2127 167.561 15.8451 169.15 14.2052C170.824 12.4816 171.962 14.6235 171.962 14.6235Z" fill="#412013"/>
<path d="M181.634 41.1302C181.517 41.5988 181.433 42.0339 181.349 42.4355C181.215 43.0714 181.132 43.6404 181.081 44.1256C180.897 45.6484 180.948 46.5521 180.814 47.5394C180.747 48.0916 180.613 48.6773 180.345 49.3969C180.094 50.0997 173.35 50.7356 169.518 50.4846C168.297 50.4009 167.426 50.1499 167.042 49.9491C165.887 49.3466 165.552 50.1164 165.619 38.8711C165.669 32.78 170.79 27.3414 170.79 27.3414C170.79 27.3414 171.208 29.9519 176.429 26.8394C176.614 26.739 178.672 29.7678 180.646 33.533C182.839 37.683 182.236 38.5532 181.634 41.1302Z" fill="#7FE1D3"/>
<path d="M152.249 71.1176L156.265 81.9111C156.265 81.9111 157.353 82.0115 158.39 81.7103C159.344 81.4258 160.448 80.7063 160.448 80.7063C160.448 80.7063 159.327 69.1096 157.252 62.4494L152.249 71.1176Z" fill="#E1558B"/>
<path d="M170.807 27.3414C170.807 27.3414 166.389 27.7263 164.916 31.9767C164.13 34.2358 159.846 45.7656 159.846 45.7656C159.846 45.7656 163.276 46.2341 164.548 44.9791C165.82 43.724 168.849 34.0016 168.849 34.0016L170.807 27.3414Z" fill="#7FE1D3"/>
<path d="M148.902 42.8538L147.63 42.3518C147.63 42.3518 146.86 42.1845 146.459 42.3184C146.04 42.4522 145.003 42.4355 145.003 42.6028C145.003 42.7702 146.174 43.3057 146.174 43.3057L146.208 43.2889C145.756 44.3097 143.514 44.8954 143.396 45.2635C143.263 45.7154 144.317 45.9496 144.886 46.1002C145.455 46.2341 146.86 46.2341 147.546 45.4978C148.048 44.9623 148.902 44.2428 148.902 44.2428V42.8538Z" fill="#E2B097"/>
<path d="M171.56 22.1538C171.56 22.1538 171.292 22.7897 170.606 22.7897C169.92 22.7897 169.736 22.6893 169.602 22.5387C169.468 22.3881 169.351 22.1204 169.351 22.1204C169.351 22.1204 170.489 21.8861 171.56 22.1538Z" fill="white"/>
<path d="M161.302 41.3478L151.83 39.1389C151.83 39.1389 149.872 39.9254 150.726 41.3478C150.726 41.3478 159.31 46.7194 162.54 46.1505C166.205 45.4978 168.698 38.6034 168.698 38.6034L161.302 41.3478Z" fill="#7FE1D3"/>
<path d="M181.065 44.1256C180.881 45.6484 180.931 46.5521 180.797 47.5394C175.911 47.5561 169.401 43.7742 169.401 43.7742L181.065 44.1256Z" fill="#6FD2CC"/>
<path d="M169.418 40.578C169.418 40.578 177.015 40.3438 178.304 36.0264C179.709 31.2739 181.282 37.9842 181.282 37.9842L180.446 42.2514H172.112L169.418 40.578Z" fill="#6FD2CC"/>
<path d="M143.915 47.2884L130.813 50.6184L128.269 40.6282L141.372 37.2981L138.058 24.2623L148.333 21.6518L151.646 34.6876L164.749 31.3576L167.293 41.3478L154.19 44.6778L157.503 57.7137L147.229 60.3242L143.915 47.2884Z" fill="#373C52"/>
<path d="M169.418 41.5821L168.548 40.5278C168.548 40.5278 167.962 40.0091 167.544 39.9254C167.125 39.8417 166.222 39.323 166.138 39.4736C166.054 39.6242 166.824 40.6617 166.824 40.6617H166.858C165.971 41.3311 163.728 40.7454 163.444 41.0131C163.109 41.3478 163.912 42.0674 164.331 42.469C164.766 42.8706 165.987 43.54 166.941 43.2387C167.644 43.0212 168.732 42.8037 168.732 42.8037L169.418 41.5821Z" fill="#E2B097"/>
<path d="M176.463 26.8561C176.463 26.8561 181.383 27.1908 182.621 29.0985C183.859 31.0229 185.382 40.7956 184.746 44.1424C184.11 47.4892 168.313 43.5065 168.313 43.5065L168.815 40.5948C168.815 40.5948 177.936 40.645 178.454 39.4569C179.124 37.8839 176.463 26.8561 176.463 26.8561Z" fill="#7FE1D3"/>
<path d="M42.3564 121.972C42.3564 121.972 45.1007 123.06 46.0379 122.776C46.9582 122.491 48.5647 121.588 48.8492 120.851C49.1336 120.115 46.9582 121.035 46.2219 120.851C45.4856 120.667 44.6824 120.433 43.2433 120.851C41.8209 121.27 42.3564 121.972 42.3564 121.972Z" fill="#E2B097"/>
<path d="M17.3557 185.227C17.3557 185.227 17.5565 188.574 18.1924 189.36H27.7476C27.6806 189.026 27.4129 188.206 26.2248 187.988C24.7187 187.72 22.1919 186.666 21.2715 184.675C20.3009 182.583 17.3557 185.227 17.3557 185.227Z" fill="#334272"/>
<path d="M0.387412 184.775C0.387412 184.775 -0.248483 188.942 0.571485 189.009C0.688623 189.026 4.50398 189.009 5.55823 189.16C7.2651 189.411 10.0932 189.193 10.0932 189.193C10.4446 189.21 10.6788 188.825 10.4948 188.524C10.294 188.189 9.92581 187.838 9.18952 187.687C7.68345 187.402 5.17335 186.298 4.28644 184.273C3.38281 182.165 0.387412 184.775 0.387412 184.775Z" fill="#334272"/>
<path d="M21.8572 140.698C21.8572 140.698 19.4475 149.115 12.5698 163.724C5.67541 178.333 5.13992 184.993 5.13992 184.993L0.387451 184.775C0.387451 184.775 0.839269 167.389 4.08567 160.009C7.34881 152.629 8.00144 132.465 8.00144 132.465L21.8572 140.698Z" fill="#6FD2CC"/>
<path d="M25.7059 133.469C25.7059 133.469 25.89 146.488 23.6476 162.486C21.3885 178.483 22.1583 185.277 22.1583 185.277L16.7532 185.461C16.7532 185.461 13.5235 169.464 14.4439 161.448C15.3643 153.449 10.0261 133.971 10.0261 133.971L25.7059 133.469Z" fill="#7FE1D3"/>
<path d="M15.0632 102.979L17.6068 104.87L21.2883 104.1C21.2381 103.766 20.9871 102.377 20.7695 101.122C20.7528 101.055 20.7361 100.971 20.7361 100.904C20.552 99.8333 20.3847 98.9129 20.3847 98.9129L16.9542 97.206L15.6657 96.5701C15.6657 96.5869 15.7661 97.7583 15.7828 97.9256C16.0171 100.921 15.0632 102.979 15.0632 102.979Z" fill="#E2B097"/>
<path d="M26.2081 133.887C26.4424 136.213 7.83417 138.957 7.76723 135.058C7.7003 131.628 9.74185 112.752 10.3777 110.058C11.4989 105.272 12.503 102.544 14.6282 101.925C15.4147 101.691 18.3097 102.444 20.4182 103.063C20.5688 103.096 20.7026 103.147 20.8533 103.214C21.372 103.414 21.8406 103.716 22.2422 104.1C22.8111 104.636 23.2295 105.305 23.4638 106.075C23.7817 107.163 24.1666 108.552 24.4678 110.091C24.7356 111.463 24.9531 112.969 25.0368 114.459C25.0535 114.76 25.0702 115.078 25.0702 115.379C25.087 116.517 25.1874 117.99 25.3212 119.63C25.4049 120.667 25.5221 121.755 25.6225 122.876C25.6559 123.194 25.6894 123.512 25.7229 123.847C25.7396 124.064 26.1077 131.444 26.2081 133.418C26.2081 133.452 26.2081 133.469 26.2081 133.502C26.2081 133.502 26.2081 133.502 26.2081 133.519C26.2081 133.552 26.2081 133.569 26.2081 133.603C26.1914 133.77 26.2081 133.87 26.2081 133.887Z" fill="#E1558B"/>
<path d="M16.0337 97.9591C16.7867 99.3982 19.598 100.653 20.7694 101.105C20.7527 101.038 20.736 100.954 20.736 100.888C20.5519 99.8165 20.3845 98.8962 20.3845 98.8962L16.9541 97.1893C16.1843 97.1726 15.7158 97.3566 16.0337 97.9591Z" fill="#DA9F84"/>
<path d="M22.0412 98.6954C22.0412 98.6954 15.8329 100.637 14.695 96.7542C13.5571 92.8719 11.9841 90.5124 15.8831 89.1067C19.7989 87.7011 21.0037 88.9561 21.7065 90.161C22.4094 91.3658 23.631 98.0929 22.0412 98.6954Z" fill="#E2B097"/>
<path d="M21.4724 89.7761C21.4724 89.7761 21.0708 94.2943 20.1504 94.0935C19.2133 93.8927 18.3766 93.7588 18.5104 95.1143C18.6443 96.4697 19.9496 98.0427 17.0713 98.2937C14.1931 98.528 10.0598 91.1148 10.8463 89.7092C13.1053 85.6595 24.769 84.8396 21.4724 89.7761Z" fill="#412013"/>
<path d="M21.0206 102.025C20.9369 101.992 16.0171 100.536 15.4816 100.72C14.9461 100.904 14.6282 101.925 14.6282 101.925L22.2254 104.084C22.2422 104.1 22.0581 102.461 21.0206 102.025Z" fill="#D23E7D"/>
<path d="M43.26 120.851C43.26 120.851 44.1469 120.115 44.8999 119.948C45.6697 119.78 46.3391 119.077 46.3391 119.412C46.3391 119.747 45.7701 120.567 45.7701 120.851C45.7701 121.136 43.26 120.851 43.26 120.851Z" fill="#E2B097"/>
<path d="M25.2876 119.63C21.3384 118.124 18.343 112.3 18.343 112.3L25.0199 114.442C25.0366 114.743 25.0534 115.061 25.0534 115.362C25.0534 116.517 25.1538 117.99 25.2876 119.63Z" fill="#D23E7D"/>
<path d="M43.3772 121.487C43.3772 121.47 43.3772 121.47 43.3939 121.454C43.578 120.784 43.2433 120.065 42.6074 119.764C40.1308 118.575 33.7049 115.463 32.9853 115.078C32.2323 114.676 24.702 107.431 22.4596 105.272C22.0747 104.904 21.5058 104.77 20.987 104.937L14.7452 106.979C13.5906 107.364 13.373 108.886 14.3771 109.572C18.9622 112.718 28.5508 119.261 30.2744 120.132C33.32 121.688 39.4614 122.491 41.7372 122.759C42.3731 122.826 42.9923 122.474 43.2433 121.889C43.2935 121.755 43.3437 121.621 43.3772 121.487Z" fill="#E1558B"/>
<path d="M31.1111 185.227C31.1111 185.378 31.1278 185.528 31.1446 185.679C31.1948 186.147 31.3454 186.599 31.5629 187.001C31.7302 187.319 31.9478 187.603 32.1988 187.854C32.8682 188.524 33.7885 188.942 34.8093 188.942H86.8856C88.9272 188.942 90.5839 187.285 90.5839 185.244C90.5839 184.223 90.1655 183.303 89.4961 182.633C88.8268 181.964 87.9064 181.546 86.8856 181.546H34.8093C32.7678 181.529 31.1111 183.186 31.1111 185.227Z" fill="#E77D3B"/>
<path d="M35.077 180.859H52.9322C53.2502 180.859 53.5012 180.608 53.5012 180.291C53.5012 179.973 53.2502 179.722 52.9322 179.722H35.077C34.7591 179.722 34.5081 179.973 34.5081 180.291C34.5081 180.592 34.7758 180.859 35.077 180.859Z" fill="#E77D3B"/>
<path d="M36.0654 181.516H38.0066V180.846H36.0654V181.516Z" fill="#D87131"/>
<path d="M31.563 187.001C31.7303 187.319 31.9479 187.603 32.1989 187.854C32.8682 188.524 33.7886 188.942 34.8094 188.942H45.8371V187.018H31.563V187.001Z" fill="#D87131"/>
<path d="M97.4784 184.139V186.315C97.4784 186.549 97.4449 186.783 97.3947 187.001C97.0935 188.122 96.0727 188.925 94.8679 188.925H40.6161C39.4113 188.925 38.3905 188.105 38.0893 187.001C38.0223 186.783 38.0056 186.549 38.0056 186.315V184.139C38.0056 182.7 39.177 181.529 40.6161 181.529H94.8679C96.307 181.529 97.4784 182.7 97.4784 184.139Z" fill="#E1558B"/>
<path d="M97.3946 187.001C97.0933 188.122 96.0726 188.925 94.8677 188.925H40.616C39.4111 188.925 38.3903 188.105 38.0891 187.001H97.3946Z" fill="#D23E7D"/>
<path d="M92.0898 185.244C92.0898 186.398 92.5082 187.419 93.1608 188.105C93.1776 188.122 93.1943 188.139 93.211 188.156C93.713 188.658 94.3657 188.959 95.0685 188.959C96.1729 188.959 98.8839 187.302 100.574 186.198C101.411 185.645 101.996 185.244 101.996 185.244C101.996 185.244 101.411 184.825 100.574 184.29C98.8839 183.186 96.1729 181.529 95.0685 181.529C94.7506 181.529 94.4493 181.596 94.1649 181.713C93.6796 181.914 93.2445 182.248 92.9098 182.7C92.5417 183.202 92.2739 183.821 92.1568 184.508V184.524C92.1066 184.759 92.0898 184.993 92.0898 185.244Z" fill="#FDF4DF"/>
<path d="M92.9099 182.684L101.243 184.959L94.165 181.696C93.6797 181.897 93.2446 182.232 92.9099 182.684Z" fill="#FFFBEE"/>
<path d="M100.039 185.244C100.039 185.679 100.273 186.064 100.574 186.198C101.411 185.645 101.996 185.244 101.996 185.244C101.996 185.244 101.411 184.825 100.574 184.29C100.256 184.424 100.039 184.792 100.039 185.244Z" fill="#E1558B"/>
</svg>
