<svg width="309" height="337" viewBox="0 0 309 337" fill="none" xmlns="http://www.w3.org/2000/svg">
<path d="M107.592 185.651L103.84 186.353L102.875 190.126L98.6184 190.631L98.8378 194.953L94.033 195.743L93.7478 199.758L89.2502 201.25L88.6798 199.56L92.0365 198.419L92.3437 194.185L96.951 193.439L96.7316 189.051L101.449 188.503L102.392 184.817L105.858 184.159L105.968 181.614L107.767 181.68L107.592 185.651Z" fill="#FFC359"/>
<path d="M195.7 174.791L200.023 170.622C198.662 163.075 191.576 159.433 186.925 158.928C174.353 157.59 167.947 166.234 165.249 180.1C160.334 205.396 166.521 311.583 166.521 311.583C166.982 308.753 201.12 202.105 200.242 172.816L195.7 174.791Z" fill="#225CA9"/>
<path d="M35.2133 264.852L34.7526 268.297L33.6337 264.326C30.5183 263.338 27.7978 263.009 25.6477 263.492C6.40682 267.858 39.6451 294.317 39.6451 294.317C39.6451 294.317 29.0483 287.669 18.8026 283.457L18.671 286.945L17.3546 283.018C9.39058 279.903 1.99698 278.455 0.5051 282.952C-0.877086 287.187 1.90922 291.201 6.73591 294.778L12.2647 294.975L8.99568 296.335C20.119 303.466 38.5262 308.556 44.8667 309.718C38.7895 308.753 23.9365 306.822 15.1387 308.731L16.5209 311.035L13.0545 309.301C9.98295 310.289 8.05228 311.934 8.27167 314.523C8.66658 319.481 30.1673 321.258 30.1673 321.258L108.711 320.535L109.149 320.754C109.127 320.732 60.5315 274.111 35.2133 264.852Z" fill="#225CA9"/>
<path d="M307.943 306.647C306.188 298.529 288.46 296.16 265.863 300.591C273.915 297.849 284.972 291.574 290.698 288.722L286.771 286.221L294.647 286.594C301.076 282.82 304.301 279.135 302.195 275.778C300.615 273.277 297.17 272.246 292.519 272.246L290.062 276.656L290.567 272.312C278.785 272.992 276.131 271.061 260.246 277.489C270.163 272.333 271.611 270.732 272.247 268.67L266.872 266.322H273.169C278.259 260.837 286.332 249.999 282.998 245.019C280.233 240.894 268.101 246.62 260.356 249.582L257.065 256.998L257.723 250.657C233.085 261.386 241.444 252.785 241.444 252.785C241.444 252.785 267.157 199.604 252.019 200.789C246.03 201.272 239.601 204.87 233.283 210.64L233.129 215.927L231.242 212.57C226.635 217.09 222.094 222.531 217.75 228.411C223.651 216.037 228.127 203.86 228.566 194.799L224.068 194.251L228.5 191.157C228.083 186.572 226.262 183.128 222.598 181.285C216.96 178.476 211.058 182.733 205.244 191.157L206.67 198.77L203.05 194.514C182.208 228.476 163.164 312.088 163.164 312.088L161.65 316.629L222.861 319.657C222.84 319.657 311.453 323.036 307.943 306.647Z" fill="#225CA9"/>
<path d="M217.903 288.437H74.3314C68.8465 288.437 64.3928 284.4 64.3928 279.42V274.067C64.3928 269.086 68.8465 265.05 74.3314 265.05H217.903C211.343 271.566 211.212 281.526 217.64 288.152L217.903 288.437Z" fill="#3ED5FC"/>
<path d="M215.907 267.748H143.66C138.68 267.748 134.643 271.785 134.643 276.765C134.643 281.746 138.68 285.782 143.66 285.782H215.907C212.528 280.232 212.528 273.255 215.907 267.748Z" fill="#DFF0F4"/>
<path d="M230.167 239.512C230.475 238.964 230.014 238.349 229.268 238.349H96.2051C87.2538 238.349 79.9698 244.339 79.9698 251.732C79.9698 259.126 87.2318 265.115 96.2051 265.115H229.29C230.014 265.115 230.497 264.479 230.189 263.953C225.67 256.208 225.67 247.213 230.167 239.512Z" fill="#013D5D"/>
<path d="M229.246 241.223H133.809C128.149 241.223 123.542 245.809 123.542 251.491V252.259C123.542 257.919 128.127 262.526 133.809 262.526H229.399C225.977 255.703 225.933 248.046 229.246 241.223Z" fill="#DFF0F4"/>
<path d="M162.199 251.952H154.301C152.611 251.952 151.229 252.478 151.229 253.136V253.246H162.199V251.952Z" fill="#FF61A4"/>
<path d="M168.934 254.914C168.934 253.29 166.872 251.974 164.327 251.974H154.191C156.122 251.974 157.68 252.983 157.68 254.211L157.636 285.826L163.23 281.767L168.934 285.826V254.914Z" fill="#FF9AC5"/>
<path d="M276.942 288.393H63.6031C56.9773 288.393 51.6022 293.768 51.6022 300.394V310.486C51.6022 317.112 56.9773 322.487 63.6031 322.487H276.942L276.833 322.377C267.706 312.856 267.75 297.827 276.942 288.393Z" fill="#FF61A4"/>
<path d="M273.169 293.439H159.128C152.502 293.439 147.127 298.814 147.127 305.44C147.127 312.066 152.502 317.441 159.128 317.441H273.169C268.979 310.004 268.979 300.855 273.169 293.439Z" fill="#DFF0F4"/>
<path d="M217.179 305.484H207.921C205.924 305.484 204.323 307.086 204.323 309.082V309.411H217.179V305.484V305.484Z" fill="#013D5D"/>
<path d="M208.294 305.506C210.51 305.506 213.801 307.371 215.665 309.674L237.605 336.879H250.483L229.619 311.013C227.162 307.963 222.818 305.506 219.9 305.506H208.294Z" fill="#3190C1"/>
<path d="M86.793 13.8866C82.2515 17.0239 83.8311 24.1981 89.316 25.1635C90.3033 25.339 91.1809 25.8655 91.8171 26.6553L93.9891 29.31C94.5815 30.034 95.6565 30.1876 96.4244 29.6611L98.1576 28.4763C98.9255 27.9498 99.1668 26.8967 98.7061 26.0849C96.9729 23.1011 96.1173 22.1139 96.4683 20.249C97.4775 14.7641 91.3344 10.7492 86.793 13.8866Z" fill="#FFC359"/>
<path d="M94.7789 27.5329C94.5376 27.6865 94.2304 27.6207 94.0769 27.4013L89.9522 21.3021L87.7802 20.7317C87.517 20.6659 87.3414 20.3807 87.4292 20.1174C87.495 19.8541 87.7802 19.6786 88.0435 19.7664L90.5885 20.4245L94.9106 26.8309C95.0641 27.0722 95.0203 27.3794 94.7789 27.5329Z" fill="#EEFBFF"/>
<path d="M97.0387 26.3482C97.28 26.1946 97.3239 25.8655 97.1703 25.6461L92.9141 19.6347L93.1554 17.3969C93.1774 17.1117 92.9799 16.8703 92.7166 16.8484C92.4314 16.8265 92.1901 17.0239 92.1681 17.2872L91.8829 19.898L96.3586 26.2165C96.4902 26.4579 96.7974 26.5017 97.0387 26.3482Z" fill="#EEFBFF"/>
<path d="M91.7294 26.5675C91.7513 26.5895 91.7732 26.6114 91.7952 26.6333L93.9672 29.288C94.5596 30.012 95.6346 30.1656 96.4025 29.639L98.1357 28.4543C98.9036 27.9278 99.1449 26.8747 98.6842 26.0629C97.9163 24.7246 97.3239 23.8032 96.929 23.0133L91.7294 26.5675Z" fill="#3190C1"/>
<path d="M269.198 149.823L267.026 146.686H263.208C262.769 146.686 262.528 146.182 262.791 145.852L265.095 142.825L263.91 139.205C263.779 138.788 264.174 138.415 264.59 138.547L268.188 139.797L271.26 137.559C271.611 137.296 272.094 137.559 272.094 137.998L272.006 141.816L275.099 144.053C275.45 144.317 275.363 144.865 274.946 144.975L271.304 146.072L270.141 149.692C270.009 150.109 269.461 150.175 269.198 149.823Z" fill="white"/>
<path d="M36.6613 161.298L32.9755 162.219L31.6591 165.795C31.5055 166.212 30.957 166.256 30.7157 165.883L28.6973 162.658L24.9018 162.504C24.463 162.483 24.2436 161.978 24.5288 161.649L26.9641 158.731L25.9329 155.067C25.8232 154.65 26.2181 154.277 26.635 154.431L30.1672 155.857L33.3484 153.751C33.6995 153.509 34.1821 153.795 34.1602 154.211L33.8969 158.007L36.8807 160.376C37.1878 160.64 37.0782 161.188 36.6613 161.298Z" fill="white"/>
<path d="M258.206 176.063L256.604 173.759H253.796C253.467 173.759 253.292 173.386 253.489 173.145L255.178 170.929L254.301 168.275C254.191 167.967 254.498 167.682 254.783 167.792L257.416 168.713L259.676 167.068C259.939 166.87 260.29 167.068 260.29 167.397L260.224 170.183L262.484 171.829C262.747 172.026 262.682 172.421 262.375 172.509L259.698 173.321L258.842 175.975C258.798 176.261 258.382 176.326 258.206 176.063Z" fill="white"/>
<path d="M270.975 101.403L268.54 100.021L266.017 101.25C265.731 101.381 265.402 101.14 265.468 100.833L266.039 98.0902L264.108 96.0718C263.888 95.8524 264.02 95.4575 264.349 95.4136L267.136 95.1065L268.452 92.6492C268.605 92.364 269 92.386 269.132 92.6712L270.295 95.2161L273.059 95.6988C273.366 95.7647 273.476 96.1376 273.257 96.357L271.194 98.2438L271.567 101.008C271.589 101.315 271.26 101.557 270.975 101.403Z" fill="white"/>
<path d="M89.338 64.3254L86.8588 63.0309L84.3796 64.3473C84.0944 64.5009 83.7653 64.2595 83.8311 63.9524L84.2919 61.188L82.2734 59.2354C82.054 59.016 82.1637 58.6211 82.4928 58.5772L85.2572 58.1604L86.4858 55.6373C86.6175 55.3521 87.0343 55.3521 87.1659 55.6373L88.4165 58.1384L91.1809 58.5334C91.488 58.5772 91.6197 58.9721 91.4003 59.1915L89.4038 61.1442L89.8864 63.9085C89.9523 64.2376 89.6232 64.479 89.338 64.3254Z" fill="white"/>
<path d="M129.224 18.2525L126.745 16.9581L124.266 18.2744C123.981 18.428 123.651 18.1867 123.717 17.8795L124.178 15.1152L122.16 13.1625C121.94 12.9431 122.05 12.5482 122.379 12.5044L125.143 12.0875L126.372 9.56447C126.504 9.27925 126.92 9.27925 127.052 9.56447L128.303 12.0656L131.067 12.4605C131.374 12.5044 131.506 12.8993 131.286 13.1187L129.29 15.0713L129.773 17.8357C129.838 18.1648 129.509 18.3842 129.224 18.2525Z" fill="white"/>
<path d="M25.8891 117.507L23.4099 116.212L20.9308 117.529C20.6456 117.682 20.3165 117.441 20.3823 117.134L20.843 114.369L18.8246 112.417C18.6052 112.197 18.7149 111.802 19.044 111.759L21.8084 111.342L23.037 108.819C23.1686 108.533 23.5855 108.533 23.7171 108.819L24.9676 111.32L27.732 111.715C28.0392 111.759 28.1708 112.153 27.9514 112.373L25.9549 114.325L26.4376 117.09C26.5034 117.397 26.1743 117.638 25.8891 117.507Z" fill="white"/>
<path d="M199.562 77.9059L197.96 75.6022H195.152C194.823 75.6022 194.647 75.2293 194.845 74.988L196.534 72.7721L195.657 70.1174C195.547 69.8102 195.854 69.525 196.139 69.6347L198.772 70.5562L201.032 68.9107C201.295 68.7132 201.646 68.9107 201.646 69.2398L201.58 72.0261L203.84 73.6716C204.103 73.869 204.037 74.2639 203.73 74.3517L201.054 75.1635L200.198 77.8181C200.132 78.1034 199.737 78.1692 199.562 77.9059Z" fill="white"/>
<path d="M253.138 78.8932L251.536 76.5895H248.728C248.399 76.5895 248.223 76.2166 248.421 75.9752L250.11 73.7593L249.233 71.1046C249.123 70.7975 249.43 70.5123 249.715 70.622L252.348 71.5434L254.608 69.898C254.871 69.7005 255.222 69.898 255.222 70.2271L255.156 73.0134L257.416 74.6589C257.679 74.8563 257.614 75.2512 257.306 75.339L254.63 76.1507L253.774 78.8054C253.73 79.1126 253.313 79.1564 253.138 78.8932Z" fill="white"/>
<path d="M218.145 126.919L214.612 126.326L212.572 129.332L208.667 128.389L207.46 132.25L203.006 131.372L201.449 134.817L197.017 134.663L197.083 132.996L200.396 133.106L202.019 129.486L206.297 130.319L207.526 126.392L211.826 127.423L213.844 124.505L217.113 125.054L218.035 122.86L219.571 123.496L218.145 126.919Z" fill="white"/>
<path d="M198.421 13.3381L197.346 16.7387L200.023 19.1959L198.553 22.9256L202.217 24.6589L200.725 28.959L203.906 30.9774L203.138 35.3214L201.493 35.0362L202.063 31.7892L198.706 29.6611L200.132 25.5364L196.403 23.7813L198.048 19.6566L195.415 17.2653L196.425 14.106L194.362 12.8774L195.218 11.4513L198.421 13.3381Z" fill="white"/>
<path d="M108.184 150.833L105.595 151.623L103.884 147.608L99.9567 148.31L98.1796 145.523L96.7755 146.423L99.1669 150.153L102.853 149.494L104.652 153.663L108.535 152.456L108.184 150.833Z" fill="white"/>
<path d="M49.3205 184.334L45.4591 186.682L49.4521 204.65C49.8031 206.208 51.5583 206.954 52.9185 206.12C53.7742 205.594 54.191 204.584 53.9716 203.619L52.9843 199.407L57.0212 196.949L60.356 199.758C61.1239 200.394 62.1989 200.482 63.0546 199.955L63.1204 199.911C64.4806 199.078 64.6342 197.169 63.4056 196.138L49.3205 184.334ZM51.9093 195.15L51.1634 191.859L53.7522 194.031L51.9093 195.15Z" fill="white"/>
<path d="M239.228 24.8344L234.753 24.2859L226.789 40.8721C226.109 42.2982 227.03 43.9875 228.61 44.185C229.597 44.2947 230.562 43.7681 230.979 42.8686L232.822 38.9414L237.517 39.5118L238.417 43.79C238.614 44.7554 239.426 45.5013 240.413 45.611H240.501C242.08 45.8085 243.375 44.3824 243.046 42.8247L239.228 24.8344ZM234.599 34.9484L236.069 31.8989L236.771 35.2117L234.599 34.9484Z" fill="white"/>
<path d="M63.4495 127.401C63.6469 126.897 63.5372 125.076 66.0164 123.255C67.0475 122.509 67.8812 121.895 68.1006 121.061C68.4736 119.613 66.9378 118.955 65.4459 118.999C64.6781 119.02 64.0199 118.406 63.976 117.638C63.9321 116.848 64.5245 116.168 65.3143 116.124C66.1699 116.059 67.2011 116.124 68.2761 116.388C71.5232 117.221 72.5543 119.371 72.0278 121.434C71.5451 123.299 70.0752 124.242 68.8904 125.032C66.872 126.37 66.9159 127.818 66.7404 128.235L63.4495 127.401ZM61.9576 130.648C62.2867 129.354 63.4275 128.63 64.7219 128.959C66.0602 129.288 66.6746 130.451 66.3674 131.767C66.0383 133.04 64.9194 133.786 63.5811 133.435C62.2647 133.106 61.6285 131.921 61.9576 130.648Z" fill="white"/>
<path d="M77.9294 162.417C78.9167 162.505 80.8474 162.899 82.6245 163.404C84.7965 164.018 86.069 164.611 87.0124 165.62C87.9338 166.519 88.4384 167.814 88.0216 169.24C87.6267 170.644 86.42 171.719 84.4674 171.873L84.4454 171.917C86.1128 172.926 87.0562 174.659 86.4639 176.699C86.047 178.125 85.0817 179.069 83.875 179.573C82.4709 180.166 80.4086 180.122 77.2712 179.222C75.5161 178.718 74.2436 178.235 73.4757 177.884L77.9294 162.417ZM79.7285 169.459L80.8913 169.788C82.7561 170.315 83.9847 169.832 84.3138 168.669C84.6648 167.485 83.9189 166.585 82.3173 166.125C81.5494 165.905 81.0887 165.817 80.7816 165.773L79.7285 169.459ZM77.732 176.436C78.0611 176.59 78.4999 176.699 79.0922 176.875C80.7157 177.336 82.2954 177.138 82.778 175.471C83.2388 173.891 81.9882 172.838 80.2111 172.333L79.0045 171.982L77.732 176.436Z" fill="white"/>
<path d="M47.3458 46.9493C48.1795 46.4008 49.9566 45.5452 51.6679 44.8651C53.7741 44.0314 55.1343 43.7242 56.5165 43.9436C57.8109 44.0972 58.9737 44.8212 59.5222 46.2034C60.0488 47.5636 59.7636 49.1433 58.2936 50.4596L58.3156 50.5035C60.2462 50.2841 62.0453 51.0959 62.8351 53.0485C63.3836 54.4307 63.1861 55.769 62.5279 56.9098C61.7601 58.2262 60.1146 59.4548 57.087 60.6615C55.3976 61.3416 54.0812 61.7146 53.2695 61.912L47.3458 46.9493ZM53.072 51.4469L54.2129 51.0081C56.0119 50.2841 56.692 49.1652 56.2532 48.0243C55.7925 46.8616 54.6736 46.6202 53.1159 47.2345C52.37 47.5197 51.9531 47.7391 51.6898 47.9146L53.072 51.4469ZM55.7486 58.2043C56.0997 58.1165 56.5165 57.9629 57.1089 57.7216C58.6666 57.1073 59.8074 55.9664 59.1712 54.3649C58.5569 52.8291 56.9334 52.7633 55.2221 53.4434L54.0374 53.9041L55.7486 58.2043Z" fill="white"/>
<path d="M230.474 169.24C230.672 170.117 230.145 170.995 229.268 171.214C228.456 171.412 227.425 171.566 226.218 171.609C220.009 171.829 216.675 168.055 216.499 162.943C216.302 156.822 220.558 153.246 225.977 153.071C227.052 153.027 227.995 153.114 228.763 153.246C229.685 153.4 230.277 154.299 230.08 155.221L230.058 155.286C229.86 156.142 229.026 156.712 228.171 156.559C227.6 156.449 226.964 156.405 226.262 156.427C223.037 156.537 220.602 158.555 220.733 162.57C220.865 166.168 223.059 168.362 226.679 168.231C227.271 168.209 227.908 168.121 228.5 168.011C229.399 167.792 230.277 168.362 230.474 169.24Z" fill="white"/>
<path d="M39.4257 96.357C39.2941 97.2565 38.4604 97.8708 37.5828 97.7392C36.7491 97.6295 35.7399 97.3881 34.599 96.9932C28.7412 94.909 27.0299 90.192 28.7412 85.3653C30.8035 79.5952 36.069 77.8401 41.1809 79.6611C42.1901 80.0121 43.0457 80.4509 43.7258 80.8458C44.5157 81.3285 44.757 82.4035 44.2305 83.1714L44.2085 83.2153C43.7258 83.9393 42.7386 84.1587 41.9926 83.6979C41.51 83.3908 40.9176 83.1056 40.2594 82.8642C37.2098 81.7892 34.2041 82.7765 32.8658 86.5501C31.6591 89.9507 32.9097 92.7809 36.3322 94.0095C36.9027 94.2069 37.517 94.3605 38.1093 94.4702C38.965 94.6457 39.5573 95.4794 39.4257 96.357Z" fill="white"/>
<path d="M230.299 109.521C229.904 108.226 230.672 106.8 231.988 106.427C233.349 106.032 234.533 106.734 235.016 108.073C235.455 109.433 234.862 110.749 233.458 111.21C231.988 111.671 230.716 110.925 230.299 109.521ZM229.992 105.615L226.152 95.5014C225.845 94.6677 226.284 93.7243 227.14 93.461L228.171 93.1319C229.026 92.8686 229.926 93.3513 230.167 94.207L232.976 104.672L229.992 105.615Z" fill="white"/>
<path d="M142.541 121.873C142.783 121.96 139.492 126.195 136.288 129.2C133.7 132.447 131.286 136.265 130.453 140.455C129.18 146.818 130.233 178.191 129.136 180.429C119.68 189.687 112.813 212.899 110.883 219.986C110.51 221.368 109.742 222.619 108.689 223.584L109.105 231.592L113.801 235.914C113.801 235.914 112.747 229.398 114.854 224.549C114.854 224.549 138.68 188.459 140.106 185.694C142.804 177.84 152.655 137.581 152.655 137.581L154.937 128.323C154.959 128.345 142.563 121.895 142.541 121.873Z" fill="#F7A491"/>
<path d="M103.555 226.151C103.555 226.151 106.539 230.736 106.78 232.535C107.043 234.312 108.623 238.371 110.378 238.634C110.773 238.7 117.596 239.183 117.552 238.349C117.508 237.691 115.051 236.77 113.888 235.98C111.914 234.619 108.842 223.474 108.842 223.474C108.842 223.474 103.686 224.725 103.555 226.151Z" fill="#FF61A4"/>
<path d="M162.923 135.782C162.923 135.782 178.281 168.604 178.368 174.374C178.456 179.31 175.692 207.064 176.46 230.188C176.482 231.021 177.535 232.14 179.092 232.842C179.948 233.237 184.138 235.102 184.138 235.102L184.709 236.594L170.317 235.563L170.119 231.636C170.119 231.636 164.393 197.059 164.963 187.296C165.051 185.76 165.797 176.568 165.797 176.568L148.487 143.154L159.369 128.849L162.923 135.782Z" fill="#F7A491"/>
<path d="M113.186 63.2723C113.076 59.5864 114.546 53.7286 119.022 48.3096L119.527 48.7264C115.161 54.0138 113.735 59.6961 113.844 63.2503L113.186 63.2723Z" fill="#FFC359"/>
<path d="M113.362 62.4166C114.656 62.5263 113.998 63.9305 113.844 64.2596C114.59 65.2468 114.13 69.898 113.91 70.2271C113.274 70.5562 113.296 69.5689 113.296 69.5689C112.989 70.7098 112.55 69.5689 112.44 69.7225C112.045 70.5343 111.694 69.3715 111.694 69.3715C110.948 70.5781 111.058 69.174 111.058 69.174C111.431 65.0055 112.638 63.9305 112.638 63.9305C112.418 62.9651 112.572 62.5044 113.23 62.4166C113.296 62.4166 113.318 62.4166 113.362 62.4166Z" fill="#FFC359"/>
<path d="M134.994 67.9893C131.155 70.4465 118.759 72.3991 118.759 72.3991C123.629 56.7782 117.552 48.2218 117.552 48.2218C128.588 47.9366 139.821 44.2508 146.776 40.5649C143.682 57.1731 147.5 59.7181 147.5 59.7181C140.874 64.1279 134.994 67.9893 134.994 67.9893Z" fill="#013D5D"/>
<path d="M164.349 62.1314C162.023 55.9445 155.946 52.1928 149.628 53.3337C147.675 50.1963 144.45 47.8708 140.918 47.1248C133.963 45.6329 124.573 48.3753 124.836 55.747C122.137 60.6834 122.028 67.7479 126.152 71.5215C124.726 78.1691 130.935 84.5974 139.031 84.3561C141.839 89.0072 147.214 91.991 152.545 91.3548C153.818 91.2012 155.771 90.8721 156.1 90.9598C155.683 90.894 164.678 97.7611 172.291 87.1863C180.08 76.3482 174.617 63.2723 164.349 62.1314Z" fill="#FE544E"/>
<path d="M163.427 24.966C163.8 24.0884 164.261 23.2327 164.81 22.4429L165.402 21.5653C165.468 21.4118 165.534 21.2801 165.556 21.1924C165.819 20.4245 164.503 15.5101 164.503 15.5101L160.356 19.1959L160.575 21.1046C159.413 20.5561 158.403 16.1902 157.943 17.3091C156.539 20.8194 157.416 22.0699 157.943 26.0849C158.118 27.4451 155.156 48.4412 154.279 52.6097C153.401 56.7782 147.456 68.428 147.456 68.428L152.216 74.4614C152.216 74.4614 161.607 57.568 162.177 52.149C162.243 51.5785 162.309 50.7229 162.374 49.6698L163.427 24.966Z" fill="#F7A491"/>
<path d="M155.968 57.1292C153.577 56.3613 153.906 52.2587 153.906 52.2587C155.639 39.6654 157.307 28.2569 157.307 28.2569C158.864 27.3793 164.217 29.0248 164.217 29.0248C163.274 44.3824 162.901 52.9168 162.55 53.948C162.177 54.9792 160.027 58.4456 155.968 57.1292Z" fill="#013D5D"/>
<path d="M127.227 90.7185L120.777 85.2556C120.777 85.2556 115.556 93.9656 111.365 101.074C107.219 99.5821 96.4902 92.5834 95.9637 92.2543C95.4371 91.9252 94.2524 84.027 93.3529 84.4439C92.4534 84.8607 94.055 88.6124 92.958 88.8976C91.861 89.1828 83.5898 83.654 83.4143 84.4C83.1072 85.7822 88.3507 87.9761 88.0874 88.5904C87.8242 89.2047 82.8 85.7822 82.0102 86.6378C81.2204 87.4934 87.0563 89.4241 87.0782 89.9945C87.1001 90.565 81.352 88.9414 81.5056 90.1262C81.5933 90.7844 86.6394 91.4425 86.3323 92.1446C86.0032 92.8467 82.076 92.9564 82.2296 93.7023C82.4051 94.4482 85.5205 93.1538 87.4292 93.9875C89.338 94.8212 91.137 94.4044 93.7917 96.6641C96.4464 98.9019 109.544 111.715 113.625 110.618C117.179 109.63 127.227 90.7185 127.227 90.7185Z" fill="#F7A491"/>
<path d="M150.045 81.3285C150.461 78.8054 154.959 75.0318 162.55 53.948C162.55 53.948 157.592 51.8199 153.928 52.2587C153.928 52.2587 141.488 75.0538 138.68 75.3171C135.872 75.6023 125.999 76.0191 124.266 77.0722C122.532 78.1253 110.729 100.789 110.729 100.789C110.729 100.789 111.146 112.746 113.164 111.824C117.355 109.894 125.867 93.3513 126.416 92.737C126.811 94.0314 132.976 113.952 132.954 118.472L132.998 118.516C138.746 123.189 147.127 122.092 151.58 116.124C151.58 116.124 150.571 109.959 151.8 104.365C153.884 94.9529 156.561 92.1885 150.045 81.3285Z" fill="#013D5D"/>
<path d="M183.217 178.893C183.217 178.893 177.052 150.855 173.542 138.7C170.031 126.546 153.599 89.0073 153.599 89.0073C149.452 82.5571 126.394 92.6273 126.394 92.7589C127.842 114.698 126.35 129.178 125.363 140.06C124.244 152.412 117.157 179.573 117.53 180.977C137.583 178.542 177.535 184.861 183.217 178.893Z" fill="#013D5D"/>
<path d="M163.362 21.697C163.362 21.697 162.835 23.1889 161.387 22.6843C159.83 22.1358 158.886 21.3898 158.886 21.3898C158.886 21.3898 159.676 23.2108 161.08 23.7154C163.823 24.6807 163.362 21.697 163.362 21.697Z" fill="#F47458"/>
<path d="M160.422 1.64428C161.036 10.6175 163.932 23.1669 168.825 34.5096C169.483 36.7474 163.34 38.5684 162.682 36.3306C161.892 27.9497 158.513 13.5355 153.467 3.46527C152.699 0.591197 159.676 -1.22979 160.422 1.64428Z" fill="#DB9540"/>
<path d="M165.995 32.6448C165.117 26.9186 160.685 7.67766 158.996 0.349882C156.78 -0.286362 152.875 1.2933 153.445 3.4653C158.513 13.5355 161.87 27.9497 162.66 36.3306C162.967 33.9611 164.459 32.9081 165.995 32.6448Z" fill="#F7B455"/>
<path d="M165.007 34.9703C165.117 33.1274 168.189 32.8422 168.759 34.5316C168.32 32.4692 165.6 24.8562 163.537 17.5723C161.475 10.3104 160.641 2.93874 160.422 1.3591C159.961 0.218246 158.404 -0.132785 156.451 0.0427305C156.648 0.503459 165.007 34.9703 165.007 34.9703Z" fill="#FFC359"/>
<path d="M157.943 15.5978C159.106 17.8137 160.685 24.8782 160.685 24.8782C163.735 24.8782 165.512 23.3863 165.512 23.3863C163.976 19.2617 162.967 14.9615 162.835 14.0401C161.058 13.5135 158.952 13.9743 157.943 15.5978Z" fill="#FF61A4"/>
<path d="M133.59 68.0771C133.59 68.0771 134.643 73.7813 134.445 76.0411C134.226 78.3008 141.51 91.0915 142.146 90.8283C142.782 90.5869 141.313 77.2697 140.259 74.1323C139.535 72.0042 139.733 65.0933 139.733 65.0933L133.59 68.0771Z" fill="#F7A491"/>
<path d="M139.821 68.5158C139.755 66.651 139.733 65.0933 139.733 65.0933L133.59 68.0771C133.59 68.0771 133.809 69.2398 134.029 70.7317C136.705 71.3021 138.658 70.2491 139.821 68.5158Z" fill="#F47458"/>
<path d="M131.352 52.3245C131.352 52.3245 128.982 53.6847 128.127 56.6466C127.271 59.6084 128.237 67.2433 134.358 69.0862C140.457 70.9291 143.111 64.8739 141.861 60.1569C140.588 55.4399 137.846 49.4504 131.352 52.3245Z" fill="#F7A491"/>
<path d="M142.607 58.3359C142.497 59.6084 141.817 60.5737 141.093 60.5079C140.391 60.4421 139.909 59.3451 140.018 58.0726C140.128 56.8001 140.808 55.8348 141.51 55.9006C142.256 55.9664 142.717 57.0634 142.607 58.3359Z" fill="#F7A491"/>
<path d="M129.882 63.2284C130.606 64.3473 130.606 65.6417 129.882 66.1463C129.158 66.6509 127.995 66.1683 127.271 65.0494C126.547 63.9305 126.547 62.636 127.271 62.1314C127.995 61.6268 129.158 62.1095 129.882 63.2284Z" fill="#F7A491"/>
<path d="M164.02 14.8958C162.835 14.6764 158.711 18.4719 158.754 19.0643C158.798 19.6786 162.813 17.2871 162.945 17.6821C163.055 17.9892 158.338 19.3495 158.645 19.898C158.842 20.2709 162.967 19.3495 163.098 19.5908C163.318 19.9857 159.808 20.0296 160.071 20.4465C160.4 20.9291 165.161 21.3679 165.161 21.3679C165.161 21.3679 164.525 19.503 164.612 18.9984C164.656 18.779 164.656 18.4719 164.634 18.1428C164.612 17.8576 164.744 17.6163 164.7 17.3091C164.568 16.0366 164.678 15.0274 164.02 14.8958Z" fill="#F7A491"/>
<path d="M160.246 16.5851L158.579 18.6693L157.943 17.8137C157.943 17.8137 157.921 17.5504 158.03 17.2213C158.096 17.0239 160.027 15.905 160.246 16.5851Z" fill="#F7A491"/>
<path d="M170.251 238.305H188.438C189.119 238.24 189.272 237.713 189.031 237.362C188.548 236.682 186.42 236.177 184.051 235.08C179.86 235.519 170.755 232.667 170.097 231.702C169.724 233.61 169.878 238.218 170.251 238.305Z" fill="#FF61A4"/>
<path d="M157.987 19.5908C157.921 19.1081 158.842 19.6127 160.224 22.0261C161.255 23.7812 160.224 27.3793 160.224 27.3793L157.789 20.9071L157.987 19.5908Z" fill="#F7A491"/>
<path d="M110.707 100.789C105.112 97.3662 97.1484 92.6711 96.5561 92.4517C95.9637 92.2324 93.1116 97.081 93.4845 97.5198C93.8575 97.9585 111.628 113.141 113.164 111.824C114.7 110.53 110.707 100.789 110.707 100.789Z" fill="#013D5D"/>
<path d="M134.555 76.9406C135.521 80.5825 141.554 91.0476 142.146 90.8282C142.717 90.6088 141.598 79.8805 140.589 75.4048C139.777 76.5895 137.341 77.6646 134.555 76.9406Z" fill="white"/>
<path d="M134.358 73.4522C132.12 75.4048 131.44 77.9717 129.948 86.3306C128.851 92.5176 127.447 131.219 121.918 140.06C130.76 145.809 139.821 143.154 139.821 143.154C136.749 111.539 134.994 76.3921 134.358 73.4522Z" fill="#FFC359"/>
<path d="M139.974 72.7501C146.425 76.787 158.864 108.665 173.015 105.572C173.673 111.1 165.622 121.895 165.622 121.895C148.465 108.007 140.611 75.4268 140.611 75.4268C140.15 74.3956 139.974 72.7501 139.974 72.7501Z" fill="#FFC359"/>
</svg>
